<svg width="78" height="39" viewBox="0 0 78 39" fill="none" xmlns="http://www.w3.org/2000/svg">
<path fill-rule="evenodd" clip-rule="evenodd" d="M10.1401 8.03775H0V13.2226H5.11746V39H10.185L10.1401 8.03775ZM77.99 38.3829H41.404L40.4454 38.3627L39.5018 38.2918L38.5631 38.1805L37.6445 38.0237L36.7358 37.8265L35.8471 37.5837L34.9734 37.3004L34.1197 36.9767L33.2859 36.6226L32.4721 36.223L31.6833 35.793L30.9144 35.3226L30.1755 34.8167L29.4616 34.2755L28.7776 33.7039L28.1185 33.102L27.4895 32.4646L26.8904 31.802L26.3262 31.109L25.797 30.3907L25.2977 29.642L24.8384 28.8681L24.419 28.0689L24.0346 27.2494L23.6951 26.4047L23.3955 25.5397L23.1359 24.6444L22.9212 23.7389L22.7564 22.8082L22.6366 21.8673L22.5617 20.9062L22.5368 19.93L22.5617 18.9436L22.6266 17.9724L22.7465 17.0062L22.9012 16.0553L23.1009 15.1144L23.3456 14.1887L23.6302 13.2782L23.9547 12.3829L24.3191 11.5128L24.7186 10.658L25.1629 9.82335L25.6372 9.01401L26.1514 8.22996L26.6956 7.47627L27.2748 6.7428L27.8889 6.03969L28.5329 5.37198L29.2069 4.72957L29.9159 4.12763L30.6498 3.55603L31.4137 3.0249L32.2025 2.53424L33.0213 2.07899L33.8601 1.66926L34.7288 1.3L35.6225 0.971205L36.5361 0.692996L37.4698 0.460311L38.4184 0.27821L39.3969 0.141634L40.3904 0.0657593L41.399 0.0404659L42.4175 0.0606999L43.411 0.136576L44.3846 0.263035L45.3431 0.440077L46.2768 0.657587L47.1954 0.92568L48.0891 1.2393L48.9528 1.59338L49.8016 1.98794L50.6154 2.42802L51.4092 2.9035L52.1731 3.41946L52.912 3.97082L53.6209 4.56265L54.2949 5.17977L54.944 5.83735L55.5581 6.52529L56.1422 7.24864L56.6864 7.99728L57.2057 8.77627L57.68 9.58055L58.1243 10.4202L58.5287 11.2751L58.8932 12.1553L59.2227 13.0607L59.5023 13.9864L59.7519 14.9323L59.9516 15.8984L60.1064 16.8798L60.2262 17.8813L60.2911 18.893L60.3161 19.9249H55.2485L55.2236 19.2117L55.1737 18.5086L55.0938 17.8055L54.9789 17.1125L54.8441 16.4296L54.6794 15.7518L54.4897 15.084L54.27 14.4265L54.0204 13.784L53.7458 13.1467L53.4462 12.5346L53.1167 11.9327L52.7572 11.351L52.3778 10.7844L51.9734 10.2381L51.544 9.71206L51.0947 9.22646L50.6154 8.75097L50.1111 8.29572L49.5819 7.87082L49.0277 7.47121L48.4486 7.09689L47.8495 6.75798L47.2204 6.44436L46.5713 6.16615L45.9023 5.92335L45.2083 5.7109L44.4894 5.53891L43.7505 5.40234L42.9916 5.30623L42.2078 5.25059L41.404 5.23541L40.6001 5.25059L39.8113 5.31634L39.0474 5.42257L38.3085 5.5642L37.5896 5.7463L36.8906 5.96381L36.2166 6.21673L35.5676 6.5L34.9385 6.81868L34.3344 7.16771L33.7552 7.54708L33.1961 7.95175L32.6668 8.38171L32.1676 8.84202L31.6883 9.32763L31.229 9.83346L30.7996 10.3595L30.3952 10.9058L30.0157 11.4774L29.6713 12.0642L29.3417 12.6611L29.0472 13.2732L28.7726 13.9004L28.5279 14.5428L28.3133 15.1953L28.1285 15.8529L27.9688 16.5206L27.839 17.1934L27.7341 17.8712L27.6592 18.5541L27.6143 19.237L27.5993 19.9249L27.6193 20.542L27.6692 21.1591L27.7541 21.7763L27.8689 22.3833L28.0187 23.0055L28.1984 23.6074L28.4081 24.2043L28.6478 24.7911L28.9124 25.3677L29.2119 25.9393L29.5365 26.4907L29.8809 27.0319L30.2604 27.558L30.6598 28.0739L31.0892 28.5646L31.5385 29.0401L32.0078 29.5004L32.5071 29.9405L33.0263 30.3502L33.5605 30.7448L34.1197 31.114L34.6988 31.4529L35.298 31.7716L35.912 32.0549L36.5461 32.3179L37.1952 32.5405L37.8642 32.7378L38.5432 32.8996L39.2421 33.0261L39.9561 33.1171L40.68 33.1778L41.4139 33.193H78V38.3829H77.99ZM77.99 30.249H41.359L40.7949 30.2339L40.2457 30.1883L39.7015 30.1226L39.1673 30.0265L38.643 29.9051L38.1288 29.7584L37.6195 29.5813L37.1303 29.3891L36.651 29.1665L36.1817 28.9237L35.7273 28.6607L35.288 28.3774L34.8636 28.0689L34.4592 27.7451L34.0648 27.4012L33.6853 27.0319L33.3309 26.6525L32.9914 26.2529L32.6718 25.8381L32.3673 25.4132L32.0877 24.963L31.8231 24.5027L31.5834 24.0323L31.3688 23.5467L31.174 23.0409L31.0093 22.53L30.8645 22.009L30.7447 21.4778L30.6498 20.9366L30.5799 20.3852L30.54 19.8288L30.525 19.2572L30.535 18.6907L30.5749 18.1342L30.6248 17.593L30.7147 17.0518L30.8295 16.5206L30.9693 15.9946L31.1391 15.4786L31.3288 14.9728L31.5385 14.4821L31.7732 14.0066L32.0278 13.5412L32.3074 13.086L32.6069 12.6459L32.9215 12.2261L33.261 11.8214L33.6105 11.4319L33.9849 11.0576L34.3793 10.7086L34.7837 10.3747L35.2031 10.0611L35.6425 9.76771L36.0968 9.49961L36.5661 9.2467L37.0454 9.02413L37.5446 8.82179L38.0489 8.63969L38.5681 8.493L39.0974 8.36654L39.6366 8.26031L40.1858 8.1895L40.7499 8.14397L41.3191 8.12879L41.8683 8.14397L42.4125 8.1895L42.9517 8.26537L43.4809 8.36654L44.0051 8.49806L44.5244 8.65486L45.0286 8.83697L45.5279 9.04436L46.0122 9.2821L46.4815 9.54008L46.9408 9.81829L47.3901 10.1269L47.8245 10.4506L48.2389 10.7996L48.6383 11.1689L49.0277 11.5584L49.3972 11.963L49.7417 12.3879L50.0712 12.8331L50.3857 13.2934L50.6753 13.7739L50.9399 14.2646L51.1895 14.7755L51.4142 15.3016L51.6139 15.8377L51.7936 16.3891L51.9434 16.9455L52.0682 17.5222L52.1681 18.114L52.243 18.7109L52.2879 19.3128L52.2979 19.93H52.243H52.0832H51.8336H51.5091H51.1246H50.7003H50.2409H49.7666H49.2973H48.838H48.4086H48.0242H47.6997H47.45H47.2903H47.2304L47.2254 19.586L47.2104 19.2521L47.1754 18.9183L47.1255 18.5946L47.0706 18.2708L47.0007 17.9572L46.9208 17.6486L46.831 17.3451L46.7261 17.0518L46.6063 16.7685L46.4815 16.4953L46.3417 16.2272L46.1919 15.9642L46.0271 15.7163L45.8524 15.4735L45.6727 15.2459L45.4779 15.0284L45.2732 14.821L45.0586 14.6288L44.8389 14.4416L44.6042 14.2747L44.3546 14.1179L44.1 13.9712L43.8404 13.8397L43.5658 13.7183L43.2862 13.6121L42.9916 13.5261L42.6921 13.4553L42.3775 13.3946L42.063 13.349L41.7335 13.3288L41.399 13.3187L41.0645 13.3288L40.7399 13.349L40.4204 13.3946L40.1109 13.4553L39.8063 13.5261L39.5167 13.6121L39.2371 13.7183L38.9675 13.8397L38.7029 13.9712L38.4483 14.1179L38.2037 14.2747L37.964 14.4467L37.7444 14.6339L37.5297 14.8261L37.33 15.0335L37.1353 15.251L36.9505 15.4786L36.7758 15.7214L36.611 15.9693L36.4662 16.2323L36.3264 16.5004L36.1966 16.7735L36.0818 17.0568L35.972 17.3502L35.8821 17.6537L35.8022 17.9623L35.7323 18.2759L35.6774 18.5996L35.6325 18.9233L35.6025 19.2572L35.5825 19.5911L35.5775 19.935L35.5875 20.2082L35.6075 20.4763L35.6524 20.7444L35.7074 21.0023L35.7822 21.2603L35.8621 21.5082L35.967 21.756L36.0818 21.9938L36.2066 22.2214L36.3414 22.444L36.4912 22.6615L36.651 22.8689L36.8257 23.0712L37.0054 23.2634L37.2001 23.4556L37.3999 23.6327L37.6046 23.7996L37.8192 23.9564L38.0439 24.1082L38.2786 24.2498L38.5182 24.3813L38.7629 24.5027L39.0125 24.6191L39.2671 24.7202L39.5217 24.8113L39.7863 24.8872L40.051 24.958L40.3156 25.0136L40.5852 25.0591L40.8548 25.0946L41.1294 25.1097L41.399 25.1198H77.985V30.249H77.99ZM70.6059 3.66226H71.19H71.2649L71.3398 3.66732L71.4047 3.67743L71.4646 3.68755L71.5245 3.69767L71.5795 3.71284L71.6244 3.72802L71.6693 3.75331L71.7143 3.7786L71.7492 3.80895L71.7792 3.8393L71.8041 3.87471L71.8241 3.91517L71.8391 3.95564L71.8491 4.00623V4.05681V4.09222L71.8441 4.12763L71.8391 4.16304L71.8291 4.19844L71.8141 4.23385L71.7991 4.26926L71.7742 4.29961L71.7492 4.32996L71.7143 4.36031L71.6743 4.3856L71.6294 4.4109L71.5745 4.42607L71.5146 4.44125L71.4447 4.45136L71.3598 4.45642L71.2699 4.46148H70.5959V3.66226H70.6059ZM69.9968 6.56576H70.6059V5.18483H71.0752L71.2 5.18988L71.3099 5.2L71.4097 5.21518L71.4946 5.23541L71.5645 5.27082L71.6244 5.30117L71.6793 5.33658L71.7193 5.3821L71.7492 5.42763L71.7742 5.47821L71.7942 5.52879L71.8091 5.58444L71.8141 5.64008L71.8191 5.69572L71.8241 5.75136V5.807V5.99922V6.15097L71.8291 6.27237L71.8391 6.36342L71.8491 6.40389L71.8541 6.4393L71.8641 6.46459L71.879 6.48482L71.894 6.50506L71.909 6.52529L71.9289 6.54047L71.9539 6.5607H72.563L72.538 6.53541L72.5231 6.51012L72.5081 6.48482L72.4931 6.45953L72.4732 6.40389L72.4632 6.32802L72.4532 6.12568L72.4332 5.807L72.4282 5.66537L72.4182 5.53385L72.4082 5.46809L72.3983 5.40739L72.3833 5.34669L72.3633 5.28599L72.3383 5.23035L72.3034 5.17977L72.2635 5.12918L72.2185 5.08366L72.1636 5.04319L72.1037 5.00272L72.0388 4.96732L71.9639 4.93696L72.0538 4.90662L72.1337 4.86109L72.2035 4.81557L72.2684 4.77004L72.3184 4.72451L72.3683 4.67393L72.4082 4.61829L72.4432 4.5677L72.4682 4.51712L72.4831 4.46148L72.4981 4.4109L72.5081 4.36031L72.5231 4.25409V4.16304V4.08716L72.5181 4.01634L72.5081 3.94553L72.4931 3.87977L72.4781 3.81907L72.4582 3.75837L72.4332 3.70778L72.4132 3.65214L72.3833 3.60662L72.3533 3.56109L72.3234 3.52062L72.2834 3.48016L72.2435 3.44981L72.2035 3.4144L72.1586 3.38911L72.1137 3.36381L72.0288 3.31829L71.9389 3.27782L71.8541 3.25759L71.7642 3.23735L71.6793 3.22218L71.5994 3.21712L71.5295 3.21206H71.4596H70.0068V6.56576H69.9968ZM68.494 4.90156L68.499 4.75486L68.509 4.61323L68.524 4.4716L68.5439 4.32996L68.5689 4.19339L68.6088 4.06187L68.6538 3.93035L68.6987 3.80389L68.7536 3.67743L68.8135 3.55603L68.8784 3.43463L68.9483 3.32335L69.0182 3.21206L69.0981 3.10078L69.178 3.00467L69.2679 2.90856L69.3577 2.81751L69.4476 2.73152L69.5525 2.65058L69.6573 2.57471L69.7721 2.50389L69.882 2.43307L70.0018 2.37237L70.1216 2.31673L70.2414 2.26615L70.3663 2.22062L70.4961 2.18016L70.6259 2.14981L70.7607 2.12957L70.8955 2.1144L71.0303 2.10428L71.1701 2.09922L71.3099 2.10428L71.4497 2.1144L71.5845 2.12957L71.7193 2.14981L71.8491 2.18016L71.9789 2.22062L72.1037 2.26615L72.2285 2.31673L72.3533 2.37237L72.4682 2.43307L72.583 2.50389L72.6978 2.57471L72.8077 2.65058L72.9125 2.73152L73.0074 2.81751L73.1022 2.90856L73.1921 3.00467L73.277 3.10078L73.3568 3.21206L73.4317 3.32335L73.5016 3.43463L73.5665 3.55603L73.6264 3.67743L73.6814 3.80389L73.7313 3.93035L73.7762 4.06187L73.8162 4.19339L73.8461 4.32996L73.8661 4.4716L73.8811 4.61323L73.8911 4.75486L73.896 4.90156L73.8911 5.04825L73.8811 5.19494L73.8661 5.34164L73.8461 5.48327L73.8162 5.6249L73.7762 5.76148L73.7313 5.89806L73.6814 6.02957L73.6264 6.16109L73.5615 6.28755L73.4966 6.40895L73.4267 6.52529L73.3519 6.64164L73.272 6.75292L73.1871 6.85915L73.0972 6.95525L73.0024 7.05136L72.9075 7.13735L72.8027 7.22335L72.6928 7.30428L72.578 7.38016L72.4632 7.44591L72.3483 7.51168L72.2235 7.56732L72.0987 7.62296L71.9739 7.66848L71.8441 7.70895L71.7143 7.74436L71.5795 7.76965L71.4447 7.78483L71.3049 7.79494L71.1651 7.8L71.0253 7.79494L70.8905 7.78483L70.7557 7.76965L70.6209 7.74436L70.4911 7.70895L70.3613 7.66848L70.2364 7.62296L70.1166 7.56732L69.9968 7.51168L69.877 7.44591L69.7671 7.38016L69.6523 7.30428L69.5475 7.22335L69.4426 7.13735L69.3528 7.05136L69.2629 6.95525L69.173 6.85915L69.0931 6.75292L69.0133 6.64164L68.9434 6.52529L68.8735 6.40895L68.8085 6.28755L68.7486 6.16109L68.6937 6.02957L68.6488 5.89806L68.6039 5.76148L68.5639 5.6249L68.5389 5.48327L68.519 5.34164L68.504 5.19494L68.494 5.04825V4.90156ZM67.84 4.90156V5.07354L67.855 5.24553L67.8749 5.41751L67.8999 5.58444L67.9398 5.7463L67.9848 5.90311L68.0397 6.05992L68.0996 6.21168L68.1695 6.35836L68.2394 6.50506L68.3193 6.6467L68.4041 6.78327L68.504 6.91479L68.6039 7.04125L68.7087 7.16771L68.8235 7.28405L68.9384 7.40039L69.0632 7.50662L69.188 7.60273L69.3178 7.70389L69.4526 7.78988L69.5924 7.87082L69.7372 7.94164L69.882 8.01245L70.0317 8.07315L70.1865 8.12879L70.3413 8.17432L70.5011 8.21479L70.6608 8.24008L70.8306 8.26031L71.0003 8.27549H71.1651H71.3448L71.5096 8.26031L71.6843 8.24008L71.8541 8.21479L72.0138 8.17432L72.1686 8.12879L72.3234 8.07315L72.4732 8.01245L72.6229 7.94164L72.7627 7.87082L72.9025 7.78988L73.0373 7.70389L73.1671 7.60273L73.2919 7.50662L73.4168 7.40039L73.5316 7.28405L73.6414 7.16771L73.7463 7.04125L73.8411 6.91479L73.931 6.78327L74.0159 6.6467L74.0958 6.50506L74.1657 6.35836L74.2355 6.21168L74.2905 6.05992L74.3454 5.90311L74.3903 5.7463L74.4303 5.58444L74.4552 5.41751L74.4752 5.24553L74.4852 5.07354L74.4902 4.99261V4.81557L74.4852 4.72957L74.4752 4.55759L74.4552 4.3856L74.4303 4.22374L74.3903 4.06693L74.3454 3.91012L74.2905 3.75331L74.2355 3.60662L74.1657 3.45992L74.0958 3.31829L74.0159 3.17665L73.931 3.04008L73.8411 2.91362L73.7463 2.78716L73.6414 2.66576L73.5316 2.54942L73.4168 2.43813L73.2919 2.33191L73.1671 2.2358L73.0373 2.14475L72.9025 2.05876L72.7627 1.97782L72.6229 1.907L72.4732 1.84125L72.3234 1.78055L72.1686 1.72996L72.0138 1.68444L71.8541 1.64397L71.6843 1.61868L71.5096 1.59844L71.3448 1.58327H71.1651H71.0003L70.8306 1.59844L70.6608 1.61868L70.5011 1.64397L70.3413 1.68444L70.1865 1.72996L70.0317 1.78055L69.882 1.84125L69.7372 1.907L69.5924 1.97782L69.4526 2.05876L69.3178 2.14475L69.188 2.2358L69.0632 2.33191L68.9384 2.43813L68.8235 2.54942L68.7087 2.66576L68.6039 2.78716L68.504 2.91362L68.4041 3.04008L68.3193 3.17665L68.2394 3.31829L68.1695 3.45992L68.0996 3.60662L68.0397 3.75331L67.9848 3.91012L67.9398 4.06693L67.8999 4.22374L67.8749 4.3856L67.855 4.55759L67.84 4.72957V4.90156ZM17.4643 0H5.16239V5.18483H12.3468L12.3967 39H17.4643V0Z" fill="#DD2A1B"/>
</svg>
