<svg width="77" height="39" viewBox="0 0 77 39" fill="none" xmlns="http://www.w3.org/2000/svg">
<path fill-rule="evenodd" clip-rule="evenodd" d="M10.7504 8.65421H0.946655V13.6175H5.8944V38.2933H10.7939L10.7504 8.65421ZM76.3503 37.7025H40.9775L40.0507 37.6831L39.1384 37.6154L38.2309 37.5088L37.3427 37.3587L36.4642 37.1699L35.605 36.9375L34.7603 36.6663L33.9348 36.3564L33.1287 36.0174L32.3419 35.6349L31.5792 35.2233L30.8359 34.773L30.1214 34.2888L29.4312 33.7707L28.7699 33.2235L28.1327 32.6473L27.5245 32.0371L26.9452 31.4028L26.3998 30.7394L25.8881 30.0519L25.4054 29.3352L24.9613 28.5944L24.5558 27.8293L24.1842 27.0448L23.8559 26.2362L23.5663 25.4082L23.3153 24.5511L23.1077 23.6844L22.9484 22.7934L22.8326 21.8928L22.7602 20.9727L22.736 20.0382L22.7602 19.094L22.8229 18.1643L22.9388 17.2394L23.0884 16.3291L23.2815 15.4284L23.518 14.5423L23.7932 13.6707L24.1069 12.8136L24.4593 11.9808L24.8455 11.1625L25.2751 10.3635L25.7336 9.58875L26.2308 8.83821L26.757 8.11672L27.3169 7.4146L27.9106 6.74154L28.5333 6.10237L29.185 5.48741L29.8704 4.91119L30.58 4.36402L31.3186 3.85559L32.0812 3.3859L32.8729 2.9501L33.6838 2.55788L34.5237 2.2044L35.3878 1.88966L36.2711 1.62334L37.1738 1.4006L38.0909 1.22628L39.037 1.09554L39.9976 1.02291L40.9727 0.998698L41.9574 1.01807L42.918 1.0907L43.8593 1.21176L44.7861 1.38123L45.6887 1.58945L46.5769 1.84608L47.441 2.1463L48.276 2.48525L49.0966 2.86294L49.8835 3.28421L50.651 3.73938L51.3895 4.23328L52.1039 4.76108L52.7893 5.32762L53.441 5.91836L54.0685 6.54785L54.6623 7.20639L55.227 7.89882L55.7532 8.61547L56.2552 9.36117L56.7138 10.1311L57.1434 10.9349L57.5344 11.7532L57.8867 12.5957L58.2053 13.4625L58.4756 14.3486L58.717 15.2541L58.9101 16.179L59.0597 17.1184L59.1756 18.0771L59.2383 19.0455L59.2624 20.0334H54.363L54.3388 19.3506L54.2906 18.6775L54.2133 18.0045L54.1023 17.3411L53.972 16.6874L53.8127 16.0385L53.6293 15.3994L53.4169 14.7699L53.1755 14.1549L52.91 13.5448L52.6204 12.9589L52.3018 12.3827L51.9543 11.8258L51.5874 11.2835L51.1964 10.7606L50.7813 10.257L50.3469 9.79212L49.8835 9.33695L49.3959 8.90115L48.8843 8.49441L48.3484 8.11188L47.7885 7.75356L47.2093 7.42913L46.6011 7.12891L45.9735 6.86259L45.3267 6.63017L44.6557 6.4268L43.9606 6.26216L43.2462 6.13142L42.5125 6.03942L41.7547 5.98616L40.9775 5.97163L40.2004 5.98616L39.4377 6.0491L38.6991 6.15079L37.9847 6.28637L37.2896 6.46069L36.6138 6.6689L35.9622 6.91101L35.3347 7.18218L34.7265 7.48724L34.1424 7.82135L33.5825 8.18451L33.0418 8.57189L32.5301 8.98347L32.0474 9.42411L31.584 9.88896L31.14 10.3732L30.7248 10.8768L30.3338 11.3997L29.967 11.9469L29.6339 12.5086L29.3153 13.08L29.0305 13.6659L28.765 14.2663L28.5285 14.8813L28.321 15.5059L28.1423 16.1354L27.9879 16.7746L27.8624 17.4186L27.761 18.0674L27.6886 18.7211L27.6452 19.3748L27.6307 20.0334L27.65 20.6241L27.6983 21.2148L27.7803 21.8056L27.8913 22.3867L28.0362 22.9823L28.2099 23.5585L28.4127 24.1299L28.6444 24.6915L28.9002 25.2436L29.1898 25.7907L29.5036 26.3185L29.8367 26.8366L30.2035 27.3402L30.5897 27.8341L31.0048 28.3038L31.4392 28.759L31.893 29.1996L32.3757 29.6209L32.8777 30.0131L33.3942 30.3908L33.9348 30.7443L34.4948 31.0687L35.074 31.3738L35.6677 31.6449L36.2808 31.8967L36.9083 32.1098L37.5551 32.2986L38.2116 32.4536L38.8874 32.5746L39.5777 32.6618L40.2776 32.7199L40.9872 32.7344H76.3599V37.7025H76.3503ZM76.3503 29.9163H40.9341L40.3886 29.9017L39.8576 29.8582L39.3315 29.7952L38.815 29.7032L38.3081 29.587L37.811 29.4466L37.3186 29.2771L36.8455 29.0931L36.3822 28.88L35.9284 28.6476L35.4891 28.3958L35.0644 28.1247L34.6541 27.8293L34.2631 27.5194L33.8817 27.1901L33.5149 26.8366L33.1721 26.4735L32.8439 26.0909L32.535 25.6939L32.2405 25.2871L31.9702 24.8562L31.7144 24.4155L31.4827 23.9652L31.2751 23.5004L31.0869 23.0161L30.9276 22.5271L30.7876 22.0283L30.6717 21.5199L30.58 21.0018L30.5124 20.474L30.4738 19.9414L30.4593 19.3942L30.469 18.8519L30.5076 18.3192L30.5559 17.8011L30.6428 17.283L30.7538 16.7746L30.889 16.271L31.0531 15.7771L31.2365 15.2929L31.4392 14.8232L31.6661 14.368L31.9123 13.9225L32.1826 13.4867L32.4722 13.0654L32.7763 12.6635L33.1046 12.2762L33.4425 11.9033L33.8045 11.545L34.1858 11.2109L34.5768 10.8913L34.9823 10.5911L35.4071 10.3102L35.8463 10.0536L36.3001 9.81149L36.7635 9.59843L37.2462 9.40474L37.7337 9.23042L38.2357 9.09L38.7474 8.96895L39.2687 8.86726L39.7997 8.79947L40.3452 8.75589L40.8955 8.74136L41.4264 8.75589L41.9526 8.79947L42.4739 8.8721L42.9856 8.96895L43.4924 9.09484L43.9944 9.24495L44.482 9.41927L44.9647 9.6178L45.4329 9.84538L45.8866 10.0923L46.3307 10.3587L46.7652 10.654L47.1851 10.9639L47.5858 11.298L47.9719 11.6515L48.3484 12.0244L48.7057 12.4117L49.0387 12.8185L49.3573 13.2446L49.6614 13.6852L49.9414 14.1453L50.1972 14.6149L50.4386 15.104L50.6558 15.6076L50.8489 16.1209L51.0226 16.6487L51.1675 17.1813L51.2881 17.7333L51.3847 18.2999L51.4571 18.8712L51.5005 19.4474L51.5102 20.0382H51.4571H51.3026H51.0613H50.7475H50.3758H49.9655H49.5214H49.0629H48.6091H48.165H47.7499H47.3782H47.0644H46.8231H46.6686H46.6107L46.6059 19.7089L46.5914 19.3893L46.5576 19.0698L46.5093 18.7599L46.4562 18.45L46.3887 18.1497L46.3114 17.8544L46.2245 17.5638L46.1232 17.283L46.0073 17.0118L45.8866 16.7503L45.7515 16.4937L45.6067 16.2419L45.4474 16.0047L45.2784 15.7722L45.1047 15.5543L44.9164 15.3461L44.7185 15.1476L44.5109 14.9636L44.2985 14.7844L44.0717 14.6246L43.8303 14.4745L43.5841 14.3341L43.3331 14.2082L43.0676 14.092L42.7973 13.9903L42.5125 13.908L42.2229 13.8402L41.9188 13.7821L41.6147 13.7385L41.2961 13.7191L40.9727 13.7095L40.6493 13.7191L40.3355 13.7385L40.0266 13.7821L39.7273 13.8402L39.4329 13.908L39.1529 13.9903L38.8826 14.092L38.6219 14.2082L38.3661 14.3341L38.1199 14.4745L37.8834 14.6246L37.6517 14.7893L37.4393 14.9684L37.2317 15.1524L37.0386 15.351L36.8504 15.5592L36.6718 15.7771L36.5028 16.0095L36.3435 16.2468L36.2035 16.4986L36.0684 16.7552L35.9429 17.0167L35.8319 17.2878L35.7257 17.5687L35.6388 17.8592L35.5616 18.1546L35.494 18.4548L35.4409 18.7647L35.3974 19.0746L35.3685 19.3942L35.3492 19.7138L35.3443 20.043L35.354 20.3045L35.3733 20.5612L35.4167 20.8178L35.4698 21.0647L35.5422 21.3117L35.6195 21.549L35.7208 21.7862L35.8319 22.0138L35.9525 22.2317L36.0829 22.4448L36.2277 22.653L36.3822 22.8515L36.5511 23.0452L36.7249 23.2292L36.9131 23.4132L37.1062 23.5827L37.3041 23.7425L37.5117 23.8926L37.7289 24.0378L37.9558 24.1734L38.1875 24.2993L38.424 24.4155L38.6654 24.5269L38.9115 24.6238L39.1577 24.7109L39.4136 24.7835L39.6694 24.8513L39.9252 24.9046L40.1859 24.9482L40.4465 24.9821L40.712 24.9966L40.9727 25.0063H76.3454V29.9163H76.3503ZM69.211 4.46571H69.7758H69.8482L69.9206 4.47055L69.9834 4.48023L70.0413 4.48992L70.0992 4.4996L70.1523 4.51413L70.1957 4.52866L70.2392 4.55287L70.2826 4.57708L70.3164 4.60613L70.3454 4.63519L70.3695 4.66908L70.3888 4.70782L70.4033 4.74656L70.413 4.79498V4.8434V4.87729L70.4081 4.91119L70.4033 4.94508L70.3937 4.97898L70.3792 5.01288L70.3647 5.04677L70.3406 5.07582L70.3164 5.10488L70.2826 5.13393L70.244 5.15814L70.2006 5.18235L70.1475 5.19688L70.0896 5.21141L70.022 5.22109L69.9399 5.22593L69.853 5.23077H69.2014V4.46571H69.211ZM68.6221 7.24513H69.211V5.92321H69.6648L69.7855 5.92805L69.8916 5.93773L69.9882 5.95226L70.0703 5.97163L70.1378 6.00552L70.1957 6.03458L70.2488 6.06847L70.2875 6.11205L70.3164 6.15563L70.3406 6.20405L70.3599 6.25248L70.3744 6.30574L70.3792 6.359L70.384 6.41227L70.3888 6.46553V6.5188V6.7028V6.84807L70.3937 6.96428L70.4033 7.05144L70.413 7.09018L70.4178 7.12407L70.4275 7.14828L70.4419 7.16765L70.4564 7.18702L70.4709 7.20639L70.4902 7.22091L70.5143 7.24028H71.1032L71.0791 7.21607L71.0646 7.19186L71.0501 7.16765L71.0357 7.14344L71.0164 7.09018L71.0067 7.01754L70.997 6.82385L70.9777 6.5188L70.9729 6.38322L70.9633 6.25732L70.9536 6.19437L70.9439 6.13626L70.9295 6.07816L70.9102 6.02005L70.886 5.96679L70.8522 5.91836L70.8136 5.86994L70.7702 5.82636L70.7171 5.78763L70.6591 5.74889L70.5964 5.71499L70.524 5.68594L70.6109 5.65689L70.6881 5.61331L70.7557 5.56973L70.8184 5.52615L70.8667 5.48257L70.915 5.43415L70.9536 5.38088L70.9874 5.33246L71.0115 5.28404L71.026 5.23077L71.0405 5.18235L71.0501 5.13393L71.0646 5.03224V4.94508V4.87245L71.0598 4.80466L71.0501 4.73687L71.0357 4.67392L71.0212 4.61582L71.0019 4.55771L70.9777 4.50929L70.9584 4.45602L70.9295 4.41244L70.9005 4.36886L70.8715 4.33013L70.8329 4.29139L70.7943 4.26234L70.7557 4.22844L70.7122 4.20423L70.6688 4.18002L70.5867 4.13644L70.4999 4.0977L70.4178 4.07833L70.3309 4.05896L70.2488 4.04444L70.1716 4.0396L70.104 4.03475H70.0365H68.6318V7.24513H68.6221ZM67.1692 5.65204L67.174 5.51162L67.1837 5.37604L67.1981 5.24046L67.2175 5.10488L67.2416 4.97414L67.2802 4.84824L67.3236 4.72234L67.3671 4.60129L67.4202 4.48023L67.4781 4.36402L67.5409 4.24781L67.6084 4.14128L67.676 4.03475L67.7533 3.92823L67.8305 3.83622L67.9174 3.74422L68.0043 3.65706L68.0911 3.57474L68.1925 3.49727L68.2939 3.42464L68.4049 3.35685L68.5111 3.28906L68.627 3.23095L68.7428 3.17768L68.8587 3.12926L68.9793 3.08568L69.1048 3.04695L69.2303 3.01789L69.3607 2.99852L69.491 2.984L69.6213 2.97431L69.7565 2.96947L69.8916 2.97431L70.0268 2.984L70.1571 2.99852L70.2875 3.01789L70.413 3.04695L70.5385 3.08568L70.6591 3.12926L70.7798 3.17768L70.9005 3.23095L71.0115 3.28906L71.1225 3.35685L71.2336 3.42464L71.3398 3.49727L71.4411 3.57474L71.5329 3.65706L71.6246 3.74422L71.7114 3.83622L71.7935 3.92823L71.8707 4.03475L71.9432 4.14128L72.0107 4.24781L72.0735 4.36402L72.1314 4.48023L72.1845 4.60129L72.2328 4.72234L72.2762 4.84824L72.3148 4.97414L72.3438 5.10488L72.3631 5.24046L72.3776 5.37604L72.3872 5.51162L72.3921 5.65204L72.3872 5.79247L72.3776 5.93289L72.3631 6.07332L72.3438 6.2089L72.3148 6.34448L72.2762 6.47522L72.2328 6.60596L72.1845 6.73185L72.1314 6.85775L72.0687 6.9788L72.0059 7.09502L71.9383 7.20639L71.8659 7.31776L71.7887 7.42429L71.7066 7.52597L71.6197 7.61797L71.528 7.70998L71.4363 7.79229L71.3349 7.87461L71.2287 7.95209L71.1177 8.02472L71.0067 8.08767L70.8957 8.15062L70.775 8.20388L70.6543 8.25714L70.5337 8.30072L70.4081 8.33946L70.2826 8.37336L70.1523 8.39757L70.022 8.4121L69.8868 8.42178L69.7517 8.42662L69.6165 8.42178L69.4862 8.4121L69.3558 8.39757L69.2255 8.37336L69.1 8.33946L68.9745 8.30072L68.8538 8.25714L68.738 8.20388L68.6221 8.15062L68.5063 8.08767L68.4001 8.02472L68.2891 7.95209L68.1877 7.87461L68.0863 7.79229L67.9994 7.70998L67.9126 7.61797L67.8257 7.52597L67.7484 7.42429L67.6712 7.31776L67.6036 7.20639L67.536 7.09502L67.4733 6.9788L67.4154 6.85775L67.3623 6.73185L67.3188 6.60596L67.2754 6.47522L67.2368 6.34448L67.2126 6.2089L67.1933 6.07332L67.1788 5.93289L67.1692 5.79247V5.65204ZM66.5368 5.65204V5.81668L66.5513 5.98131L66.5706 6.14595L66.5948 6.30574L66.6334 6.46069L66.6768 6.6108L66.7299 6.76091L66.7878 6.90617L66.8554 7.04659L66.923 7.18702L67.0002 7.3226L67.0823 7.45334L67.1788 7.57924L67.2754 7.70029L67.3767 7.82135L67.4878 7.93272L67.5988 8.04409L67.7195 8.14577L67.8401 8.23778L67.9656 8.33462L68.096 8.41694L68.2311 8.49441L68.3711 8.5622L68.5111 8.62999L68.6559 8.6881L68.8056 8.74136L68.9552 8.78494L69.1097 8.82368L69.2641 8.84789L69.4282 8.86726L69.5924 8.88179H69.7517H69.9254L70.0847 8.86726L70.2537 8.84789L70.4178 8.82368L70.5723 8.78494L70.7219 8.74136L70.8715 8.6881L71.0164 8.62999L71.1612 8.5622L71.2963 8.49441L71.4315 8.41694L71.5618 8.33462L71.6873 8.23778L71.808 8.14577L71.9287 8.04409L72.0397 7.93272L72.1459 7.82135L72.2473 7.70029L72.339 7.57924L72.4259 7.45334L72.5079 7.3226L72.5852 7.18702L72.6527 7.04659L72.7203 6.90617L72.7734 6.76091L72.8265 6.6108L72.8699 6.46069L72.9086 6.30574L72.9327 6.14595L72.952 5.98131L72.9617 5.81668L72.9665 5.7392V5.56973L72.9617 5.48741L72.952 5.32278L72.9327 5.15814L72.9086 5.00319L72.8699 4.85308L72.8265 4.70298L72.7734 4.55287L72.7203 4.41244L72.6527 4.27202L72.5852 4.13644L72.5079 4.00086L72.4259 3.87012L72.339 3.74906L72.2473 3.62801L72.1459 3.5118L72.0397 3.40043L71.9287 3.2939L71.808 3.19221L71.6873 3.10021L71.5618 3.01305L71.4315 2.93073L71.2963 2.85326L71.1612 2.78547L71.0164 2.72252L70.8715 2.66441L70.7219 2.61599L70.5723 2.57241L70.4178 2.53367L70.2537 2.50946L70.0847 2.49009L69.9254 2.47557H69.7517H69.5924L69.4282 2.49009L69.2641 2.50946L69.1097 2.53367L68.9552 2.57241L68.8056 2.61599L68.6559 2.66441L68.5111 2.72252L68.3711 2.78547L68.2311 2.85326L68.096 2.93073L67.9656 3.01305L67.8401 3.10021L67.7195 3.19221L67.5988 3.2939L67.4878 3.40043L67.3767 3.5118L67.2754 3.62801L67.1788 3.74906L67.0823 3.87012L67.0002 4.00086L66.923 4.13644L66.8554 4.27202L66.7878 4.41244L66.7299 4.55287L66.6768 4.70298L66.6334 4.85308L66.5948 5.00319L66.5706 5.15814L66.5513 5.32278L66.5368 5.48741V5.65204ZM17.8317 0.959961H5.93784V5.92321H12.884L12.9323 38.2933H17.8317V0.959961Z" fill="white"/>
</svg>
