<svg width="30" height="30" viewBox="0 0 30 30" fill="none" xmlns="http://www.w3.org/2000/svg">
<path fill-rule="evenodd" clip-rule="evenodd" d="M7.5 0C6.46448 0 5.625 0.839475 5.625 1.875V3.75H3.75C1.67893 3.75 0 5.42893 0 7.5V26.25C0 28.3211 1.67893 30 3.75 30H26.25C28.3211 30 30 28.3211 30 26.25V7.5C30 5.42893 28.3211 3.75 26.25 3.75H24.375V1.875C24.375 0.839475 23.5356 0 22.5 0C21.4644 0 20.625 0.839475 20.625 1.875V3.75H9.375V1.875C9.375 0.839475 8.53553 0 7.5 0ZM7.5 9.375C6.46448 9.375 5.625 10.2145 5.625 11.25C5.625 12.2855 6.46448 13.125 7.5 13.125H22.5C23.5356 13.125 24.375 12.2855 24.375 11.25C24.375 10.2145 23.5356 9.375 22.5 9.375H7.5Z" fill="white"/>
</svg>
