<svg width="24" height="23" viewBox="0 0 24 23" fill="none" xmlns="http://www.w3.org/2000/svg">
<path fill-rule="evenodd" clip-rule="evenodd" d="M1.5 0.5C0.67158 0.5 0 1.17158 0 2C0 2.82842 0.67158 3.5 1.5 3.5V15.5C1.5 17.1569 2.84314 18.5 4.5 18.5H8.37868L6.43933 20.4393C5.85356 21.0251 5.85356 21.9749 6.43933 22.5606C7.02513 23.1464 7.97487 23.1464 8.56067 22.5606L12 19.1213L15.4394 22.5606C16.0251 23.1464 16.9749 23.1464 17.5606 22.5606C18.1464 21.9749 18.1464 21.0251 17.5606 20.4393L15.6213 18.5H19.5C21.1569 18.5 22.5 17.1569 22.5 15.5V3.5C23.3284 3.5 24 2.82842 24 2C24 1.17158 23.3284 0.5 22.5 0.5H1.5ZM18 6.5C18 5.67158 17.3284 5 16.5 5C15.6715 5 15 5.67158 15 6.5V12.5C15 13.3284 15.6715 14 16.5 14C17.3284 14 18 13.3284 18 12.5V6.5ZM13.5 8C13.5 7.17158 12.8285 6.5 12 6.5C11.1716 6.5 10.5 7.17158 10.5 8V12.5C10.5 13.3284 11.1716 14 12 14C12.8285 14 13.5 13.3284 13.5 12.5V8ZM9 9.5C9 8.67158 8.32842 8 7.5 8C6.67158 8 6 8.67158 6 9.5V12.5C6 13.3284 6.67158 14 7.5 14C8.32842 14 9 13.3284 9 12.5V9.5Z" fill="white"/>
</svg>
