<svg width="30" height="30" viewBox="0 0 30 30" fill="none" xmlns="http://www.w3.org/2000/svg">
<path fill-rule="evenodd" clip-rule="evenodd" d="M15 3C14.1716 3 13.5 3.67158 13.5 4.5V6C13.5 6.82842 14.1716 7.5 15 7.5C15.8285 7.5 16.5 6.82842 16.5 6V4.5C16.5 3.67158 15.8285 3 15 3ZM6 6H10.5C10.5 8.48527 12.5147 10.5 15 10.5C17.4853 10.5 19.5 8.48527 19.5 6H24C25.6569 6 27 7.34314 27 9V22.5C27 24.1569 25.6569 25.5 24 25.5H6C4.34314 25.5 3 24.1569 3 22.5V9C3 7.34314 4.34314 6 6 6ZM9.75 16.5C10.9926 16.5 12 15.4926 12 14.25C12 13.0074 10.9926 12 9.75 12C8.50736 12 7.5 13.0074 7.5 14.25C7.5 15.4926 8.50736 16.5 9.75 16.5ZM13.4257 22.5C13.4749 22.2576 13.5007 22.0068 13.5007 21.75C13.5007 19.6789 11.8218 18 9.75074 18C7.67967 18 6.00074 19.6789 6.00074 21.75C6.00074 22.0068 6.02655 22.2576 6.07575 22.5H13.4257ZM18 13.5C17.1715 13.5 16.5 14.1716 16.5 15C16.5 15.8285 17.1715 16.5 18 16.5H22.5C23.3284 16.5 24 15.8285 24 15C24 14.1716 23.3284 13.5 22.5 13.5H18ZM16.5 19.5C16.5 18.6715 17.1715 18 18 18H21C21.8284 18 22.5 18.6715 22.5 19.5C22.5 20.3284 21.8284 21 21 21H18C17.1715 21 16.5 20.3284 16.5 19.5Z" fill="white"/>
</svg>
