<svg width="30" height="26" viewBox="0 0 30 26" fill="none" xmlns="http://www.w3.org/2000/svg">
<path fill-rule="evenodd" clip-rule="evenodd" d="M3.75 0C1.67893 0 0 1.66294 0 3.71429V22.2857C0 24.3371 1.67893 26 3.75 26H26.25C28.3211 26 30 24.3371 30 22.2857V3.71429C30 1.66294 28.3211 0 26.25 0H3.75ZM9.375 3.71429H20.625V11.1429H9.375V3.71429ZM24.375 18.5714V22.2857H26.25V18.5714H24.375ZM20.625 14.8571H9.375V22.2857H20.625V14.8571ZM24.375 14.8571H26.25V11.1429H24.375V14.8571ZM26.25 7.42857V3.71429H24.375V7.42857H26.25ZM5.625 3.71429V7.42857H3.75V3.71429H5.625ZM5.625 11.1429H3.75V14.8571H5.625V11.1429ZM3.75 18.5714H5.625V22.2857H3.75V18.5714Z" fill="white"/>
</svg>
