<svg width="30" height="30" viewBox="0 0 30 30" fill="none" xmlns="http://www.w3.org/2000/svg">
<path fill-rule="evenodd" clip-rule="evenodd" d="M27 15C27 21.6275 21.6275 27 15 27C8.37258 27 3 21.6275 3 15C3 8.37258 8.37258 3 15 3C21.6275 3 27 8.37258 27 15ZM16.5 9C16.5 9.82842 15.8285 10.5 15 10.5C14.1716 10.5 13.5 9.82842 13.5 9C13.5 8.17158 14.1716 7.5 15 7.5C15.8285 7.5 16.5 8.17158 16.5 9ZM13.5 13.5C12.6716 13.5 12 14.1716 12 15C12 15.8285 12.6716 16.5 13.5 16.5V21C13.5 21.8284 14.1716 22.5 15 22.5H16.5C17.3285 22.5 18 21.8284 18 21C18 20.1716 17.3285 19.5 16.5 19.5V15C16.5 14.1716 15.8285 13.5 15 13.5H13.5Z" fill="white"/>
</svg>
