<svg width="36" height="36" viewBox="0 0 36 36" fill="none" xmlns="http://www.w3.org/2000/svg">
<path d="M22.966 14.625L26.6705 10.9205C27.1098 10.4812 27.1098 9.76885 26.6705 9.3295C26.2312 8.89017 25.5188 8.89017 25.0795 9.3295L21.375 13.034V11.25C21.375 10.6287 20.8713 10.125 20.25 10.125C19.6287 10.125 19.125 10.6287 19.125 11.25V15.7492C19.125 15.7503 19.125 15.7523 19.125 15.7534C19.1254 15.9047 19.1557 16.049 19.2104 16.1806C19.2641 16.3103 19.3429 16.432 19.4472 16.5381C19.452 16.5431 19.457 16.548 19.4619 16.5528C19.568 16.657 19.6897 16.736 19.8193 16.7896C19.952 16.8446 20.0974 16.875 20.25 16.875H24.75C25.3713 16.875 25.875 16.3713 25.875 15.75C25.875 15.1287 25.3713 14.625 24.75 14.625H22.966Z" fill="white"/>
<path d="M9 10.125C9 9.50368 9.50368 9 10.125 9H12.547C13.0969 9 13.5663 9.39759 13.6567 9.94005L14.4884 14.9304C14.5696 15.4176 14.3236 15.9007 13.8818 16.1216L12.1402 16.9924C13.396 20.1131 15.8869 22.604 19.0076 23.8598L19.8784 22.1182C20.0992 21.6764 20.5824 21.4303 21.0696 21.5116L26.06 22.3433C26.6024 22.4337 27 22.9031 27 23.453V25.875C27 26.4963 26.4963 27 25.875 27H23.625C15.5478 27 9 20.4522 9 12.375V10.125Z" fill="white"/>
<rect x="0.5" y="0.5" width="35" height="35" rx="9.5" stroke="white"/>
</svg>
