<svg width="43" height="56" viewBox="0 0 43 56" fill="none" xmlns="http://www.w3.org/2000/svg">
<path fill-rule="evenodd" clip-rule="evenodd" d="M14.3012 8.3593C6.08023 10.386 0 17.793 0 26.6651C0 30.9709 1.45698 35.0244 3.92326 38.1907H4.11047C4.36279 38.1907 4.55 38.1907 4.81047 38.3779C4.99767 38.5081 5.12791 38.6954 5.19302 38.9477L5.32326 39.5826C5.38837 40.0872 5.38837 40.0221 5.89302 40.1523C6.33256 40.2174 6.78023 40.2826 7.21977 40.3395C3.73605 37.2384 1.52209 32.6802 1.52209 27.6744C1.52209 19.1849 7.72442 12.1605 15.8233 10.8256C15.693 10.7605 15.693 10.7605 15.636 10.6384C15.2535 9.8814 14.8058 9.11628 14.3012 8.3593ZM33.543 31.5407C33.7953 31.2884 33.9256 31.1581 33.9826 30.9058L34.0477 30.6535L35 27.4221C35.0651 27.1698 35 27.1698 35.3174 27.1698C36.3267 27.1698 37.0919 26.9826 38.1663 26.9174C38.3535 26.9174 38.2965 26.9174 38.4837 26.9826L38.9233 27.1698C39.1756 27.2349 39.1756 27.2349 39.1756 27.4872L38.9884 28.4395C38.9884 28.6919 38.9884 28.6267 38.8581 28.757C38.1581 29.1965 38.1012 29.514 38.1581 30.3442L42.3337 34.2674C42.464 34.3326 42.3337 34.4547 42.2686 34.5849C42.1384 34.9674 42.0163 35.2849 41.8291 35.5942C41.6988 35.9116 41.8942 35.8465 41.8291 36.164C41.764 36.4814 41.6419 36.7337 41.5767 36.986C40.7547 39.5174 38.9802 42.6186 37.336 44.6454C37.0837 44.9628 37.0837 44.9628 36.7663 45.0849C31.6384 47.4291 20.3163 48.3163 12.9744 47.6814C12.5919 47.8686 12.2744 47.9988 11.9 48.1861C11.5826 48.2512 11.2651 48.4384 11.0128 48.5035C10.8256 48.5035 10.6953 48.5035 10.5733 48.3733C10.5733 48.3733 10.5081 48.3081 10.5081 48.243C10.443 48.1779 10.443 48.1128 10.3779 48.0558C10.2477 47.8035 10.1256 47.5512 9.99535 47.4209C9.99535 47.4209 9.99535 47.4209 9.93023 47.486C9.67791 47.6163 9.61279 47.6163 9.54768 47.6163C9.48256 47.6163 9.41744 47.4291 9.29535 47.2337C8.97791 47.1035 8.59535 47.0465 8.28605 46.9814C6.9593 46.664 5.31512 46.2244 4.17558 45.7116C3.79302 45.5244 3.35349 45.3291 2.97093 45.0767C2.8407 44.9465 2.8407 44.9465 2.78372 44.7593C2.5314 43.75 2.34419 42.6674 2.14884 41.593C2.08372 41.5279 2.14884 41.5279 2.0186 41.4628C1.88837 41.4628 1.88837 41.4628 1.88837 41.3326C1.75814 40.5105 1.57093 39.6884 1.44884 38.9233C1.44884 38.793 1.44884 38.736 1.51395 38.6709C1.51395 38.6058 1.57907 38.6058 1.70116 38.6058L4.10233 38.6709C4.41977 38.6709 4.54186 38.736 4.67209 39.0535L4.8593 40.0628C4.8593 40.193 4.92442 40.25 4.92442 40.3151C4.98954 40.5023 5.05465 40.4454 5.30698 40.5023C7.58605 41.007 9.93023 41.0721 12.2663 41.0721L13.0884 35.6919L13.9105 30.686L14.1628 28.7895C13.9756 28.7895 13.7802 28.7244 13.593 28.6023C13.5279 28.6023 13.4628 28.6674 13.4058 28.6674C13.0233 28.9198 13.0233 28.9198 12.5186 28.7326C12.3314 28.6023 12.136 28.5454 12.014 28.4802C11.5093 28.293 11.0047 28.0407 10.4349 27.8453H10.3779V27.7151C10.5081 27.4628 10.5651 27.2756 10.6953 27.1454C10.7605 27.0151 10.8256 26.893 10.9477 26.8279C10.443 25.7535 10.3779 24.8663 10.6302 23.9791C10.8826 23.157 11.5174 22.3919 12.4616 21.7651C12.9012 21.5128 13.3488 21.3256 13.8535 21.1954C14.3581 21.1302 14.8628 21.1954 15.4326 21.4477C15.8721 21.3174 15.8721 21.3826 16.0023 20.943C16.0023 20.8128 16.0674 20.6907 16.0674 20.5605C16.0023 20.5605 16.0023 20.4953 15.9372 20.4302C15.9372 20.4302 15.9372 20.3651 15.8721 20.3C15.3023 20.3 14.9849 20.1698 14.7977 19.543C14.5453 19.543 14.3581 19.4779 14.2279 19.4128C14.0977 19.2826 14.0407 19.0953 14.0407 18.9081C14.0407 18.7209 14.1058 18.4686 14.293 18.2081C14.7326 17.5733 15.4326 17.3209 15.6849 16.4988C15.6849 16.3116 15.75 16.0593 15.75 15.7988C15.6849 15.6686 15.6849 15.6116 15.9372 15.6116L16.4419 15.5465C16.6291 15.5465 16.6291 15.5465 16.6942 15.6767C17.0116 15.9942 17.4512 16.3767 17.8337 16.564C18.1512 16.7512 18.5337 16.8814 18.9081 17.0035L19.0953 17.0686C19.7953 17.3209 20.5523 17.5733 20.6174 18.3384C20.6826 18.9733 20.2349 19.0954 19.9174 19.0954C19.8523 19.0954 19.7872 19.0954 19.7872 19.0954C19.7872 19.4779 19.657 19.6651 19.4698 19.7953C19.2826 19.9256 19.0872 19.9826 18.8349 20.0477C18.8349 20.1128 18.8349 20.2349 18.8349 20.3C18.7698 20.6174 18.7047 20.8047 18.8349 21C18.9 21.0651 18.9 21.0651 18.9 21.1302C18.9651 21.1302 18.9651 21.1302 18.9651 21.1954C19.3477 21.0651 19.5349 20.943 19.7221 20.8128C20.1047 20.5605 20.357 20.4302 21.114 20.5605C21.7488 20.6256 22.3756 20.5605 22.9453 20.5605C23.0756 20.5605 23.1977 20.5605 23.3279 20.5605C22.8233 18.664 21.936 16.8895 20.7314 15.2372C19.5267 13.4628 18.0128 11.9407 16.2384 10.4837C16.0512 10.3535 16.1081 10.4186 16.0512 10.2965C15.2291 8.90465 13.8372 6.49535 12.4453 4.40349C11.6233 3.19884 10.6709 1.80698 9.59651 0.854651C9.46628 0.724419 9.4093 0.667442 9.46628 0.602325C9.46628 0.537209 9.59651 0.537209 9.78372 0.602325C10.736 0.854651 11.6151 1.17209 12.5674 1.55465C12.6977 1.42442 12.8849 1.30233 12.95 1.17209C12.3802 0.854651 12.0628 0.732558 11.6884 0.415116C10.9884 -0.154651 11.1837 0.0325581 11.6884 0.0976743C12.1279 0.162791 12.5756 0.162791 13.0802 0.227907C13.65 0.35814 14.2849 0.480233 14.9767 0.667442C14.936 0.634884 14.936 0.569767 14.936 0.569767C14.936 0.252325 15.1884 0 15.5058 0C15.7581 0 16.0105 0.252325 16.0105 0.569767C16.0105 0.7 15.9453 0.887209 15.8233 0.952326C15.9535 1.01744 16.0756 1.08256 16.2058 1.08256V2.92209C17.5977 3.49186 18.9244 4.12674 20.2593 4.76163C23.4907 6.40581 26.5267 8.43256 29.1151 10.907H29.1802V10.9721C29.1151 12.0465 29.2453 13.886 29.6198 15.343C29.9372 16.3523 30.3198 17.1826 30.9465 17.4349V17.5C31.8988 19.714 32.2081 22.6279 31.9558 25.6721C31.7686 28.7081 30.9465 31.8826 29.807 34.4791L32.7779 32.1349C33.0384 31.9233 33.3477 31.7279 33.543 31.5407ZM34.6826 31.7279C34.3651 31.5407 33.9826 31.6628 33.7953 31.793C33.543 32.0454 33.3558 32.1756 33.0953 32.4279L28.0326 36.4163C26.7709 37.5558 26.9581 38.5733 27.0233 40.2174C27.0233 40.7872 26.893 41.1698 27.0233 41.1047C28.5454 40.1523 33.2256 36.6686 34.1779 35.9116C35 35.2767 35.7 34.6419 36.457 34.0151C36.5872 33.8849 36.8395 33.6326 36.9616 33.6326C37.0919 33.5674 37.1488 33.5674 37.214 33.5674C37.3442 33.6977 37.4663 33.7547 37.1488 34.007C36.2616 34.764 35.3174 35.5291 34.4302 36.286C34.1128 36.6035 33.543 37.1081 33.0384 37.6128C32.4686 38.1826 33.0384 38.3128 33.7953 38.3128C35.057 38.3128 36.7663 37.9953 37.8488 37.2384C38.3535 36.9209 38.8012 36.4814 39.3058 35.8465C39.493 35.6593 39.7453 35.407 40.0058 35.3419C40.2581 35.2767 40.3884 35.3419 40.3884 35.5942C40.5186 36.9209 40.5756 37.0512 40.136 38.3779C39.7535 39.3872 39.3791 40.2744 38.8744 41.1616C38.8093 41.3488 38.7442 41.4791 38.6221 41.6663C38.6221 41.7314 38.557 41.7965 38.4919 41.9186C38.3616 42.1058 38.4919 42.1058 38.557 41.9837C38.6221 41.9186 38.6872 41.7965 38.7442 41.7314C39.314 40.8442 39.9488 39.6395 40.3884 38.4349C40.9581 36.9128 41.2105 35.7733 41.3407 35.0814C41.4058 34.6988 41.3407 34.3244 41.7802 34.1942C41.593 34.007 38.4919 31.2151 37.6047 30.393C37.2872 30.1407 37.3523 29.9535 37.4174 29.5709C37.4826 29.3186 37.5477 28.814 37.7349 28.7488C37.9872 28.6186 38.0523 28.6837 38.1174 28.4314L38.3046 27.357C38.3046 27.2267 38.1744 27.2267 38.0523 27.2267L36.343 27.414C36.2128 27.4791 36.1558 27.5442 36.1558 27.6663C36.343 28.3663 36.5384 28.936 36.7256 29.693C36.8558 30.1977 36.9779 30.6454 36.9779 31.2151C37.043 31.6547 37.043 31.85 36.6605 31.85C36.2779 31.85 35.9035 31.9151 35.6512 32.1674C35.5209 32.2977 35.464 32.2326 35.2686 32.1023C35.057 32.0453 34.8698 31.8581 34.6826 31.7279ZM27.9105 35.9116C27.4709 36.164 27.1535 36.5465 26.9012 36.9209V36.7337C26.9663 36.0337 27.0314 35.2116 27.0884 34.5198C27.0884 33.8198 27.0233 33.7628 27.6581 33.193C28.6105 32.3058 28.9849 31.6709 29.75 30.3442C30.0674 29.7744 30.1895 29.9616 30.1895 30.3442C30.1244 31.5488 29.4326 33.2581 29.05 34.3326L28.6105 35.3419C28.4151 35.5291 28.1628 35.7163 27.9105 35.9116ZM26.5837 37.5558C26.4535 37.9384 26.3965 38.3779 26.3314 38.8826C23.7349 40.2093 20.886 41.5442 18.4198 43.0012C18.1674 43.1314 17.9802 43.2535 17.7849 43.4407C17.6546 43.5709 17.5977 43.7581 17.5326 43.8802C17.4023 44.2628 17.0279 44.5802 16.7105 44.8326C16.5233 44.8977 12.2826 47.1767 10.6953 47.6163C10.443 47.6814 10.443 47.6163 10.3128 47.486C10.1256 47.1686 9.87326 46.5988 9.80814 46.3465C9.74302 46.2163 9.62093 46.0291 9.62093 46.2163C9.62093 46.4035 9.68605 46.5337 9.68605 46.5988C9.62093 46.664 9.62093 46.664 9.55581 46.7291C9.42558 46.7291 9.30349 46.7942 9.23837 46.664C9.10814 46.5337 9.10814 46.5337 9.05116 46.4767C9.05116 46.4116 8.98605 46.3465 8.98605 46.4767C8.98605 46.5419 9.05116 46.7291 9.17326 46.9163C9.23837 47.1035 9.10814 47.1035 9.04302 46.9814C8.91279 46.7942 8.66047 46.3465 8.60349 46.0291C8.53837 45.8419 8.41628 45.964 8.28605 45.964C8.03372 46.0291 8.03372 46.0291 7.90349 45.7767C7.83837 45.6465 7.77326 45.5244 7.71628 45.4593C7.58605 45.1419 7.46395 45.1419 7.58605 45.4593L7.77326 46.1593C7.90349 46.4767 7.83837 46.664 7.70814 46.2895L7.52093 45.85C7.2686 45.9802 7.20349 45.9151 7.01628 45.5977C6.82907 45.3454 6.51163 44.7105 6.57674 44.2709C6.57674 44.2058 6.57674 44.1407 6.64186 44.0837C6.64186 44.0186 6.64186 43.9535 6.70698 43.9535C6.77209 43.8884 6.77209 43.8233 6.89419 43.8233C7.46395 43.5709 9.17326 43.2535 9.86512 43.0663C11.3221 42.7488 13.2186 42.1791 14.6756 41.6744C14.9279 41.5442 15.1151 41.4872 15.3756 41.4872C17.7198 41.1698 18.9814 40.7302 20.943 39.843L24.1744 38.7686H24.2395L26.5837 37.5558ZM15.7581 27.4872H15.8233C15.8884 27.3 15.8884 27.1698 15.8884 27.0477L15.7581 23.8814C15.7581 23.7512 15.7581 23.8163 15.693 23.6942C15.6279 23.6942 15.5628 23.6291 15.5628 23.6291C15.3756 23.4988 15.3756 23.564 15.4326 23.7593C15.5058 25.0128 15.6279 26.2174 15.7581 27.4872ZM22.5953 50.3512H21.1384C21.1384 50.7337 21.4558 51.0512 21.8953 51.0512C22.2779 51.043 22.5953 50.7256 22.5953 50.3512ZM7.02442 41.1698C5.88488 41.0395 4.87558 40.8523 4.2407 40.6C4.17558 40.6 4.17558 40.5349 4.11047 40.4698C4.11047 40.4047 4.04535 39.2651 3.98023 39.0779L1.8314 38.9477C1.76628 38.9477 1.76628 38.9477 1.76628 39.0128L2.14884 41.2267C2.14884 41.2919 2.14884 41.2919 2.21395 41.2919C2.40116 41.2919 2.40116 41.4221 2.40116 41.4791C2.58837 42.5535 2.8407 43.693 3.10116 44.7756C3.10116 44.7756 3.10116 44.8407 3.16628 44.9058C3.73605 45.2884 5.69767 46.2326 4.37093 44.8407C4.30581 44.7756 4.2407 44.6535 4.18372 44.6535C3.99651 44.4663 3.86628 44.2709 3.86628 44.1488C3.9314 44.0186 3.9314 43.8965 4.18372 43.8965C4.24884 43.8965 4.37093 43.8965 4.43605 43.8965C4.56628 43.9616 4.62326 43.9616 4.75349 43.9616C4.9407 44.0267 5.19302 44.0267 5.51047 44.0919C5.76279 44.0919 6.08023 44.157 6.39768 44.157C6.46279 44.0919 6.46279 44.0919 6.46279 44.0267C6.46279 43.9616 6.52791 43.8965 6.52791 43.8395C6.65814 43.7093 6.71512 43.7093 6.84535 43.6523C7.54535 43.4 8.93721 43.1477 9.81628 42.8954C8.67674 42.7651 7.60233 42.5128 6.65 41.943C6.01512 41.5442 6.64186 41.2919 7.02442 41.1698ZM8.04186 41.2267H7.97674C7.78954 41.2267 7.02442 41.2267 7.08954 41.6093C7.27674 42.4314 9.43372 42.6186 10.3779 42.7488C11.6395 42.4314 13.3488 41.9919 14.6186 41.4791C14.936 41.3488 15.0012 41.3488 15.3186 41.2919C15.5058 41.2267 15.7012 41.1616 15.8233 41.1616C14.114 41.2267 10.8256 41.357 8.04186 41.2267ZM19.4291 52.1256V51.1733H16.1407V55.9837H19.4291V55.0314H17.0849V54.0221H19.4291V53.1349H17.0849V52.1256H19.4291ZM2.84884 52.1256H3.67093V55.9919H4.62326V51.1814C3.98837 51.1814 3.4186 51.1814 2.84884 51.1814V52.1256ZM11.8349 51.1733V55.9837H12.7872V54.3965H13.9267C14.814 54.3965 15.5709 53.6965 15.5709 52.8093C15.5709 51.857 14.814 51.1651 13.9267 51.1651C13.2267 51.1733 12.5349 51.1733 11.8349 51.1733ZM12.7872 52.1256H13.9267C14.3093 52.1256 14.6267 52.443 14.6267 52.8256C14.6267 53.2081 14.3093 53.4605 13.9267 53.4605H12.7872V52.1256ZM28.0326 51.1733C26.7709 51.1733 25.5663 51.1733 24.2965 51.1733V52.1256H25.6884V55.9919H26.6407V52.1256H28.0326V51.1733ZM31.386 51.1733V52.8174L29.5546 54.714V51.1651H28.6023V55.9756H29.5546L31.386 54.2012V55.9756H32.3384V51.1651H31.386V51.1733ZM37.214 51.1733V55.9837H38.1663V52.1174H40.193V51.1651H37.214V51.1733ZM35.6919 51.1733V53.1349H33.8605V51.1733H32.9081V55.9837H33.8605V54.0221H35.6919V55.9837H36.6442V51.1733H35.6919ZM10.1256 52.8174C9.74302 52.8174 9.36861 53.2 9.36861 53.5744C9.36861 53.957 9.75116 54.3314 10.1256 54.3314C10.5 54.3314 10.8826 53.9488 10.8826 53.5744C10.8826 53.2 10.5081 52.8174 10.1256 52.8174ZM22.7826 51.1733V52.8174L20.9512 54.714V51.1651H19.9988V55.9756H20.9512L22.7826 54.2012V55.9756H23.7349V51.1651H22.7826V51.1733ZM8.66861 55.7314L8.22907 54.9093C8.04186 55.0395 7.78954 55.0395 7.59419 55.0395C6.77209 55.0395 6.07209 54.4046 6.07209 53.5826C6.07209 52.7605 6.77209 52.1256 7.59419 52.1256C7.7814 52.1256 8.03372 52.1256 8.22907 52.2558L8.66861 51.4337C8.28605 51.2465 7.96861 51.1814 7.59419 51.1814C6.26744 51.1814 5.12791 52.2558 5.12791 53.5907C5.12791 54.9174 6.26744 56 7.59419 56C7.97674 55.9837 8.29419 55.9186 8.66861 55.7314ZM24.2395 23.5558C24.4267 26.0221 24.4919 28.5616 23.1 32.1023L22.9698 31.9151L23.2872 32.2977C23.7267 31.793 24.0442 31.4756 24.3616 30.9058C24.5488 30.5884 24.6791 30.0186 24.9314 29.4488C24.9965 29.1965 24.9965 29.0093 25.1837 28.8791L26.0058 28.1791C26.3884 27.9267 26.4454 27.8616 26.7628 28.2442L27.1453 28.6837C27.4628 29.0663 27.5849 29.0663 27.9674 28.7488L28.2849 28.4314C28.6023 28.114 28.7244 27.9919 28.4721 27.6744C27.2674 26.3477 26.3233 24.8907 25.3709 23.3686C24.9314 23.4988 24.614 23.4988 24.2395 23.5558ZM28.5453 11.2733C23.0349 6.01512 17.7849 3.61395 10.6953 1.20465C11.3302 2.34419 15.1884 5.57558 16.5151 7.03256C19.486 10.264 22.0174 13.9349 24.6791 17.4186C25.314 18.2407 25.9407 19.0628 26.2581 17.6709C26.3233 17.3535 27.8372 16.3442 28.407 15.3267C29.4895 13.3 28.4802 13.0477 28.5453 11.2733ZM22.6523 31.3535C23.6616 28.8872 24.1744 26.2907 23.914 23.564C23.157 23.6942 22.3349 23.6942 21.5698 23.8163C21.1302 23.8814 21.0651 24.0035 20.7477 24.7035L20.6826 24.8907L20.3 25.9C19.9826 26.6 19.9826 26.6 20.2349 27.1698C20.7395 28.1221 21.4395 29.1314 22.0093 30.1488L22.6523 31.3535ZM14.7488 40.9744C14.8791 38.5081 15.1884 36.164 15.5058 33.5023C15.7581 31.3454 15.8233 30.4012 15.8233 32.9977C15.8884 36.0337 15.8884 38.6954 16.0105 40.9744H16.0756L16.6453 40.9093L17.5977 40.7221V28.8791C17.5326 27.1047 17.4674 26.5349 17.9802 28.6919C18.0453 29.1314 18.1674 29.5791 18.2326 29.9616C18.4849 31.8012 18.55 33.5674 18.6721 35.8547L18.9244 38.8907L19.0547 40.4128L19.3721 40.2826L19.1849 36.9291L18.7453 30.8488L18.3547 26.3477L18.2895 24.3209C18.2895 23.4337 18.4767 23.1163 18.9895 22.864C19.8116 22.5465 21.9605 22.864 22.9779 22.9942C23.6128 22.5547 22.8477 21.9849 23.1651 21.2849C23.2953 21.0326 23.4826 20.9674 23.4174 21.35C23.2872 22.05 23.3523 22.3593 23.4174 23.0593C23.6047 23.0593 23.8 23.0593 23.9872 22.9942L24.9395 22.6116C24.5 21.9116 24.0523 21.7895 23.4826 20.8372C22.6605 20.8372 21.8384 20.9674 21.1384 20.9023C20.3814 20.7721 20.186 20.9674 19.8767 21.1547C19.4942 21.3419 19.1767 21.5372 18.8674 21.5942C18.2977 21.7814 17.793 21.7814 17.2233 21.5291C16.7837 21.2767 16.4663 20.9593 16.214 20.707C16.214 20.7721 16.214 20.8942 16.1488 21.0244C16.0837 21.2767 16.0837 21.3419 16.0186 21.407C15.9535 21.5372 15.8884 21.5372 15.636 21.6593C15.3837 21.7244 15.5058 21.7244 15.2535 21.6593C14.7488 21.4721 14.3012 21.4721 13.8616 21.5291C13.4221 21.5942 12.9744 21.7814 12.6 22.0337C11.6477 22.6686 11.0209 23.2384 10.8256 24.0605C10.6384 24.5 10.6384 25.0128 10.6953 25.5826C11.2 25.6477 12.0221 25.0779 12.2744 24.7605C12.3395 24.5733 12.4047 24.443 12.4616 24.3209C12.5267 24.1337 12.3314 24.0686 12.3965 23.8163C12.4698 23.6209 12.5349 23.5558 12.657 23.6209C12.8442 23.686 12.8442 23.686 13.0965 23.6209H13.1616C13.414 23.4907 13.6663 23.3686 13.9837 23.2384C14.114 23.743 14.3012 24.1907 14.3663 24.6954C14.4965 25.2651 14.5535 25.7698 14.5535 26.2826C14.6186 27.5523 14.4233 29.0663 14.3012 30.2709C13.7965 34.007 13.1616 37.3035 12.7791 41.0395C13.5442 41.0395 13.9837 41.0395 14.7488 40.9744ZM17.0849 22.0419L16.8977 23.1814C16.8326 23.4988 16.7674 23.6209 16.4581 23.6209H16.2709C16.2709 23.8081 16.2709 24.8907 16.2709 25.3953V25.4605V26.5349C16.2709 26.7221 16.2709 26.9174 16.2058 27.1047C16.2058 27.1698 16.1407 27.2349 16.0756 27.1698C16.0756 27.1047 16.0756 27.1047 16.0756 26.9826C16.0756 26.9174 16.0105 26.7953 16.0105 26.7302L15.9453 23.7512V23.564H15.8802C15.693 23.564 15.6279 23.4337 15.6279 23.3767C15.5628 23.2465 15.6279 23.0593 15.693 22.8721C15.7581 22.7419 15.8233 22.6849 15.7581 22.807C15.7581 23.0593 15.6279 23.2465 15.8884 23.2465H16.393C16.5802 23.3116 16.6453 23.1814 16.6453 22.9942L16.7756 22.107C16.8407 21.9198 16.8407 21.8547 16.6453 21.8547H16.2058C16.0756 21.8547 16.1407 21.7244 16.2709 21.7244H16.7756H16.9058C16.9709 21.7244 17.093 21.7895 17.093 21.9116V22.0419H17.0849ZM22.6523 39.6477C20.943 40.4047 19.2337 41.1698 17.5244 41.9267C17.2721 41.9919 17.0198 41.9919 16.7674 42.057C16.2628 42.057 16.1977 42.057 15.7581 42.2442L9.80814 44.9058C9.62093 45.036 9.93837 45.1581 10.1907 45.036C12.0221 44.1488 13.9837 43.3267 15.8233 42.4395C16.1407 42.3093 16.393 42.2523 16.6453 42.2523C17.0279 42.3174 17.2151 42.3174 17.5326 42.1872C19.307 41.3651 21.0163 40.543 22.7256 39.7209C23.6047 39.2651 23.6047 39.2651 22.6523 39.6477ZM13.414 42.7488C11.5174 43.5058 8.85581 44.6454 8.60349 44.8407C8.53837 44.9709 8.53837 45.1581 8.53837 45.2802C8.53837 45.4105 8.53837 45.4105 8.53837 45.4105C8.53837 45.3454 8.40814 45.1581 8.40814 45.093C8.27791 44.8407 8.27791 44.6535 8.53837 44.4581C8.72558 44.3279 9.04302 44.2058 9.4907 44.0186C10.6953 43.5791 12.0872 43.1314 13.3488 42.6919C14.3663 42.3093 14.6837 42.2442 13.414 42.7488ZM7.40698 44.5233C7.40698 44.2709 7.53721 44.2058 7.72442 44.1407C7.91163 44.0105 8.61163 43.8233 9.30349 43.636C9.55581 43.5709 10.9477 43.1314 11.0779 43.0663C11.0779 43.0663 9.75116 43.3837 9.30349 43.4488C8.6686 43.636 8.09884 43.7663 7.6593 43.8884C7.27674 44.0756 7.27674 44.2058 7.34186 44.5233C7.40698 44.6535 7.40698 44.6535 7.40698 44.6535C7.40698 44.6535 7.40698 44.6454 7.40698 44.5233ZM11.2651 23.8163C11.2 23.7512 11.0779 23.7512 11.0779 23.9465C11.0779 24.1419 11.2081 24.1988 11.3302 24.3291C11.3954 24.3942 11.143 24.3942 10.9477 24.3291C10.8174 24.3291 10.6953 24.3291 10.8826 24.4593C11.2651 24.5895 12.0872 24.5244 12.0221 24.4593C11.3953 24.1907 11.4523 24.0035 11.2651 23.8163ZM11.1349 25.2733C11.6395 25.086 12.2744 24.6384 12.0872 24.7035C11.957 24.7035 11.4523 24.8337 11.1349 24.9558C10.8826 25.0779 10.6302 25.4605 11.1349 25.2733ZM15.8233 21.9116C15.7581 21.9767 15.693 22.0419 15.5709 22.0988C15.4407 22.164 15.636 22.2291 15.7012 22.2291C16.0756 22.0419 16.0105 21.7244 15.8233 21.9116ZM16.0105 22.2291L15.9453 22.864L15.8802 22.9291C15.8802 23.0593 15.8802 23.0593 16.0105 23.0593C16.1407 23.0593 16.1977 23.0593 16.1407 22.9942C16.0756 22.9291 16.0756 22.864 16.0756 22.807L16.1407 22.3674C16.2058 22.2372 16.2058 22.2372 16.2709 22.1151C16.2709 22.1151 16.2709 22.1151 16.2058 22.1151H16.1407C16.0105 22.107 16.0756 22.107 16.0105 22.2291ZM13.6663 24.9558C13.6012 25.0209 13.536 25.143 13.4791 25.2733C13.2919 25.5907 13.2919 25.9733 13.2919 26.543C13.2919 26.7302 13.2919 26.9826 13.2919 27.243C13.5442 27.243 13.7965 27.3081 13.9919 27.4302C14.1221 27.4953 14.2442 27.6174 14.3093 27.8128C14.3744 27.243 14.4395 26.8035 14.3744 26.2907C14.3744 25.7209 14.3093 25.2163 14.1872 24.5814C13.9267 24.7035 13.7965 24.8256 13.6663 24.9558ZM12.657 27.357C12.5267 26.9744 12.2174 26.9174 12.0221 27.2919L11.957 27.4791C11.7698 27.9186 11.7698 28.114 11.957 28.3012H12.0872C12.9093 28.6837 12.5919 28.6186 13.3488 27.9837C13.536 27.7314 13.6012 27.7965 13.536 28.0488C13.4709 28.3012 13.7884 28.7488 13.9756 28.3012C14.0407 28.114 14.0407 27.7314 13.7884 27.4791C13.6581 27.414 13.4058 27.414 13.1535 27.3488C12.9744 27.357 12.8442 27.357 12.657 27.357ZM11.1349 26.7872C11.3221 26.657 11.5744 26.5349 11.7698 26.5349C11.8349 26.5349 11.8349 26.5349 11.8349 26.4698C11.9 26.3395 11.6477 26.3395 11.3954 26.4047C11.2651 26.4047 11.143 26.4698 11.0128 26.5349C11.0128 26.6 11.0779 26.7302 11.1349 26.7872ZM11.7047 25.6477C11.6395 25.7128 11.6395 25.7128 11.7047 25.9C11.7698 26.0872 11.957 26.2826 12.0872 26.5349C12.1523 26.7872 12.2174 26.9174 12.2174 26.5349C12.1523 26.0954 12.0872 25.7779 12.1523 25.3302C12.1523 25.2651 12.1523 25.2 12.1523 25.143C12.1523 25.143 11.7698 25.5826 11.7047 25.6477ZM17.5977 16.7837C17.2802 17.1663 17.2151 17.3535 17.1581 17.8581C17.5407 17.9884 17.8581 18.0453 18.2326 18.2407C18.6721 18.4279 19.2419 18.5581 19.5593 18.4279C19.9419 18.2977 20.064 17.9884 19.9419 17.6709C19.6895 17.4837 19.3721 17.4186 19.0547 17.2884L18.8674 17.2233C18.4198 17.1012 18.0372 17.036 17.5977 16.7837ZM14.4314 19.0628C14.5616 18.9977 14.6837 18.9326 14.814 18.8105C15.0012 18.6802 15.1965 18.493 15.3186 18.3709C15.4488 18.2407 15.636 18.1186 15.7581 17.9314V17.1093C15.3756 17.6791 14.8058 17.8663 14.4314 18.3791C14.3663 18.5093 14.2442 18.6314 14.2442 18.7616C14.1791 18.9326 14.1791 19.1279 14.4314 19.0628ZM15.8884 17.736H16.4581H16.5233C16.5233 17.6058 16.5233 17.4837 16.5233 17.3535L16.5884 15.8314C16.5884 15.7663 16.5884 15.7663 16.4581 15.7663L16.0186 15.8314C15.8884 15.8314 15.8884 15.8314 15.8884 15.8965C15.8884 16.0837 15.8884 16.336 15.8884 16.5314C15.8884 16.914 15.8884 17.3535 15.8884 17.736ZM16.5802 18.9326C16.45 18.9977 16.393 19.25 16.6453 19.1849C16.7756 19.1198 16.8326 19.0547 16.9628 18.9977C17.15 18.8674 17.093 18.8674 16.9628 18.8105C16.8977 18.7453 16.4581 18.5581 16.5802 18.7453C16.5802 18.7453 16.5802 18.7453 16.5802 18.8105C16.7105 18.8756 16.6453 18.8756 16.5802 18.9326ZM15.9453 18.493C15.8802 18.6233 15.7581 18.6233 15.5628 18.6233L15.4326 18.6884C15.4326 19.0058 15.4977 19.193 15.6198 19.4454C15.6849 19.6326 15.75 19.8279 15.807 20.0151C15.8721 20.2023 15.9942 20.2674 16.1895 20.2674C16.4419 20.2674 16.5721 20.2023 16.5721 20.0802C16.7023 19.8279 16.6372 19.7628 16.507 19.7628C16.3767 19.6977 16.2547 19.7628 16.1244 19.7628C15.9372 19.7628 15.9372 19.6326 16.0593 19.6326C16.1244 19.6326 16.1244 19.6326 16.1895 19.6326C16.3767 19.6326 16.4419 19.5674 16.4419 19.5023C16.6291 19.25 16.1895 19.3151 16.0593 19.3721C15.9291 19.5023 15.7419 19.3721 15.8721 19.2419C15.9372 19.2419 16.0023 19.2419 16.0593 19.2419C16.2465 19.2419 16.1895 19.1767 16.1244 18.9895H16.0756C15.9453 18.9244 16.0105 18.8023 16.1407 18.8023C16.393 18.8023 16.2709 18.6151 16.3279 18.55C16.393 18.4198 16.393 18.2977 16.2628 18.2326C16.0756 18.1756 16.0756 18.4279 15.9453 18.493ZM37.6535 26.4128C37.5884 20.1453 34.4221 14.5698 29.6767 11.2163C29.6116 12.1035 29.7419 13.1128 29.864 13.943C29.9291 14.3826 29.9942 14.7651 30.1163 15.2128C33.2174 18.1267 35.2442 22.1802 35.4965 26.6733C36.2616 26.6 36.9616 26.5349 37.6535 26.4128ZM20.5035 3.73605C20.1209 3.73605 19.7465 3.80116 19.364 3.80116C19.7465 3.98837 20.1209 4.11861 20.4384 4.30581C21.643 4.9407 22.8395 5.57558 23.9791 6.26744C32.9 8.42442 39.55 16.4012 39.55 26.0302C39.55 26.3477 39.55 26.6651 39.55 26.9826C39.6802 27.1698 39.6802 27.3651 39.6802 27.5523L39.55 28.5047C39.4849 28.757 39.4849 28.8872 39.3628 29.0093C39.2977 29.514 39.1756 30.0186 39.1105 30.5314C39.55 30.914 39.9977 31.3535 40.4372 31.8012C41.1942 29.5872 41.5767 27.3081 41.5767 24.8337C41.5767 13.1698 32.1512 3.73605 20.5035 3.73605ZM12.4698 5.38023C6.58488 7.78954 2.02674 12.7872 0.252326 18.9977C0.187209 19.1849 0.122093 19.3802 0.122093 19.5674C0.0569766 19.8849 0.0569768 19.8198 0.187209 19.4372C0.252326 19.307 0.252325 19.1198 0.317442 18.9977C2.5314 13.1047 7.27674 8.54651 13.2919 6.65C13.0395 6.21047 12.7221 5.76279 12.4698 5.38023Z" fill="white"/>
</svg>
