<svg width="44" height="58" viewBox="0 0 44 58" fill="none" xmlns="http://www.w3.org/2000/svg">
<path fill-rule="evenodd" clip-rule="evenodd" d="M14.8119 8.65786C6.29739 10.757 0 18.4285 0 27.6175C0 32.0771 1.50901 36.2753 4.06338 39.5547H4.25727C4.51861 39.5547 4.7125 39.5547 4.98227 39.7486C5.17617 39.8835 5.31105 40.0774 5.37849 40.3387L5.51338 40.9963C5.58082 41.5189 5.58082 41.4515 6.10349 41.5864C6.55873 41.6538 7.02239 41.7213 7.47762 41.7803C3.86948 38.5684 1.57646 33.8474 1.57646 28.6628C1.57646 19.8701 8.0003 12.5948 16.3884 11.2122C16.2535 11.1448 16.2535 11.1448 16.1945 11.0183C15.7983 10.2343 15.3346 9.44187 14.8119 8.65786ZM34.741 32.6672C35.0024 32.4058 35.1372 32.271 35.1963 32.0096L35.2637 31.7483L36.25 28.4015C36.3175 28.1401 36.25 28.1401 36.5788 28.1401C37.6242 28.1401 38.4166 27.9462 39.5294 27.8788C39.7233 27.8788 39.6643 27.8788 39.8582 27.9462L40.3134 28.1401C40.5747 28.2076 40.5747 28.2076 40.5747 28.4689L40.3809 29.4553C40.3809 29.7166 40.3809 29.6492 40.246 29.784C39.521 30.2393 39.462 30.5681 39.521 31.4279L43.8457 35.4913C43.9806 35.5588 43.8457 35.6852 43.7782 35.8201C43.6434 36.2163 43.5169 36.5451 43.323 36.8654C43.1881 37.1942 43.3904 37.1268 43.323 37.4556C43.2556 37.7843 43.1291 38.0457 43.0617 38.307C42.2102 40.9288 40.3724 44.1407 38.6695 46.2399C38.4082 46.5687 38.4082 46.5686 38.0794 46.6951C32.7683 49.123 21.0419 50.0419 13.4378 49.3844C13.0416 49.5782 12.7128 49.7131 12.325 49.907C11.9962 49.9745 11.6675 50.1684 11.4061 50.2358C11.2122 50.2358 11.0773 50.2358 10.9509 50.1009C10.9509 50.1009 10.8834 50.0335 10.8834 49.966C10.816 49.8986 10.816 49.8312 10.7486 49.7721C10.6137 49.5108 10.4872 49.2495 10.3523 49.1146C10.3523 49.1146 10.3523 49.1146 10.2849 49.182C10.0236 49.3169 9.95611 49.3169 9.88867 49.3169C9.82123 49.3169 9.75379 49.123 9.62733 48.9207C9.29856 48.7858 8.90233 48.7268 8.58199 48.6594C7.20786 48.3306 5.50495 47.8753 4.32471 47.3442C3.92849 47.1503 3.47326 46.948 3.07704 46.6867C2.94215 46.5518 2.94215 46.5518 2.88314 46.3579C2.6218 45.3125 2.42791 44.1913 2.22558 43.0785C2.15814 43.0111 2.22558 43.0111 2.0907 42.9436C1.95582 42.9436 1.95582 42.9436 1.95582 42.8088C1.82093 41.9573 1.62704 41.1059 1.50058 40.3134C1.50058 40.1785 1.50058 40.1195 1.56802 40.0521C1.56802 39.9846 1.63547 39.9846 1.76192 39.9846L4.24884 40.0521C4.57762 40.0521 4.70407 40.1195 4.83896 40.4483L5.03285 41.4936C5.03285 41.6285 5.1003 41.6875 5.1003 41.755C5.16774 41.9489 5.23518 41.8899 5.49652 41.9489C7.85698 42.4716 10.2849 42.539 12.7044 42.539L13.5558 36.9666L14.4073 31.782L14.6686 29.8178C14.4747 29.8178 14.2724 29.7503 14.0785 29.6239C14.0111 29.6239 13.9436 29.6913 13.8846 29.6913C13.4884 29.9526 13.4884 29.9526 12.9657 29.7587C12.7718 29.6239 12.5695 29.5649 12.443 29.4974C11.9204 29.3035 11.3977 29.0422 10.8076 28.8399H10.7486V28.705C10.8834 28.4436 10.9425 28.2497 11.0773 28.1149C11.1448 27.98 11.2122 27.8535 11.3387 27.7861C10.816 26.6733 10.7486 25.7544 11.0099 24.8355C11.2712 23.984 11.9288 23.1916 12.9067 22.5425C13.3619 22.2811 13.8256 22.0872 14.3483 21.9523C14.8709 21.8849 15.3936 21.9523 15.9837 22.2137C16.439 22.0788 16.439 22.1462 16.5739 21.691C16.5739 21.5561 16.6413 21.4297 16.6413 21.2948C16.5739 21.2948 16.5739 21.2273 16.5064 21.1599C16.5064 21.1599 16.5064 21.0925 16.439 21.025C15.8489 21.025 15.5201 20.8901 15.3262 20.241C15.0648 20.241 14.8709 20.1736 14.7361 20.1061C14.6012 19.9712 14.5422 19.7773 14.5422 19.5834C14.5422 19.3896 14.6096 19.1282 14.8035 18.8584C15.2587 18.2009 15.9837 17.9396 16.2451 17.0881C16.2451 16.8942 16.3125 16.6329 16.3125 16.3631C16.2451 16.2282 16.2451 16.1692 16.5064 16.1692L17.0291 16.1018C17.223 16.1018 17.223 16.1018 17.2904 16.2366C17.6192 16.5654 18.0744 16.9616 18.4707 17.1555C18.7994 17.3494 19.1957 17.4843 19.5834 17.6108L19.7773 17.6782C20.5023 17.9396 21.2864 18.2009 21.3538 18.9933C21.4212 19.6509 20.9576 19.7773 20.6288 19.7773C20.5614 19.7773 20.4939 19.7773 20.4939 19.7773C20.4939 20.1736 20.359 20.3675 20.1651 20.5023C19.9712 20.6372 19.7689 20.6962 19.5076 20.7637C19.5076 20.8311 19.5076 20.9576 19.5076 21.025C19.4401 21.3538 19.3727 21.5477 19.5076 21.75C19.575 21.8175 19.575 21.8175 19.575 21.8849C19.6425 21.8849 19.6425 21.8849 19.6425 21.9523C20.0387 21.8175 20.2326 21.691 20.4265 21.5561C20.8227 21.2948 21.084 21.1599 21.868 21.2948C22.5256 21.3622 23.1747 21.2948 23.7648 21.2948C23.8997 21.2948 24.0262 21.2948 24.1611 21.2948C23.6384 19.3305 22.7195 17.4928 21.4718 15.7814C20.2241 13.9436 18.6561 12.3672 16.8183 10.8582C16.6244 10.7233 16.6834 10.7907 16.6244 10.6643C15.773 9.22268 14.3314 6.72733 12.8898 4.56076C12.0384 3.31308 11.052 1.87151 9.93925 0.885175C9.80437 0.750292 9.74536 0.69128 9.80437 0.623838C9.80437 0.556396 9.93925 0.556396 10.1332 0.623838C11.1195 0.885175 12.03 1.21395 13.0163 1.61018C13.1512 1.47529 13.3451 1.34884 13.4125 1.21395C12.8224 0.885175 12.4936 0.758721 12.1058 0.429942C11.3808 -0.160175 11.5832 0.0337209 12.1058 0.101163C12.5611 0.168605 13.0247 0.168605 13.5474 0.236047C14.1375 0.370931 14.7951 0.497384 15.5116 0.69128C15.4695 0.657559 15.4695 0.590117 15.4695 0.590117C15.4695 0.261337 15.7308 0 16.0596 0C16.3209 0 16.5823 0.261337 16.5823 0.590117C16.5823 0.725001 16.5148 0.918896 16.3884 0.986338C16.5233 1.05378 16.6497 1.12122 16.7846 1.12122V3.02646C18.2262 3.61657 19.6003 4.27413 20.9829 4.93169C24.3297 6.6346 27.4742 8.73373 30.155 11.2965H30.2224V11.364C30.155 12.4768 30.2899 14.382 30.6776 15.891C31.0064 16.9364 31.4026 17.7962 32.0518 18.0576V18.125C33.0381 20.418 33.3585 23.4361 33.0971 26.589C32.9032 29.7335 32.0518 33.0213 30.8715 35.7105L33.9486 33.2826C34.2183 33.0634 34.5387 32.8611 34.741 32.6672ZM35.9213 32.8611C35.5925 32.6672 35.1963 32.7936 35.0024 32.9285C34.741 33.1899 34.5471 33.3247 34.2774 33.5861L29.0337 37.7169C27.7271 38.8971 27.921 39.9509 27.9884 41.6538C27.9884 42.2439 27.8535 42.6402 27.9884 42.5727C29.5649 41.5864 34.4122 37.9782 35.3986 37.1942C36.25 36.5367 36.975 35.8791 37.759 35.23C37.8939 35.0951 38.1553 34.8338 38.2817 34.8338C38.4166 34.7663 38.4756 34.7663 38.5431 34.7663C38.6779 34.9012 38.8044 34.9602 38.4756 35.2215C37.5567 36.0056 36.5788 36.798 35.6599 37.582C35.3311 37.9108 34.741 38.4335 34.2183 38.9561C33.6282 39.5463 34.2183 39.6811 35.0024 39.6811C36.309 39.6811 38.0794 39.3524 39.2006 38.5684C39.7233 38.2396 40.187 37.7843 40.7096 37.1268C40.9035 36.9329 41.1649 36.6716 41.4346 36.6041C41.696 36.5367 41.8309 36.6041 41.8309 36.8654C41.9657 38.2396 42.0247 38.3745 41.5695 39.7486C41.1733 40.7939 40.7855 41.7128 40.2628 42.6317C40.1954 42.8256 40.1279 42.9605 40.0015 43.1544C40.0015 43.2218 39.9341 43.2893 39.8666 43.4157C39.7317 43.6096 39.8666 43.6096 39.934 43.4832C40.0015 43.4157 40.0689 43.2893 40.1279 43.2218C40.7181 42.3029 41.3756 41.0553 41.8309 39.8076C42.421 38.2311 42.6823 37.0509 42.8172 36.3343C42.8846 35.9381 42.8172 35.5503 43.2724 35.4154C43.0785 35.2215 39.8666 32.33 38.9477 31.4785C38.6189 31.2172 38.6864 31.0233 38.7538 30.6271C38.8213 30.3657 38.8887 29.8431 39.0826 29.7756C39.3439 29.6407 39.4114 29.7082 39.4788 29.4468L39.6727 28.334C39.6727 28.1992 39.5378 28.1992 39.4114 28.1992L37.641 28.3931C37.5061 28.4605 37.4471 28.5279 37.4471 28.6544C37.641 29.3794 37.8433 29.9695 38.0372 30.7535C38.1721 31.2762 38.2986 31.7399 38.2986 32.33C38.366 32.7852 38.366 32.9875 37.9698 32.9875C37.5736 32.9875 37.1858 33.055 36.9245 33.3163C36.7896 33.4512 36.7306 33.3838 36.5282 33.2489C36.309 33.1899 36.1152 32.996 35.9213 32.8611ZM28.9073 37.1942C28.4521 37.4556 28.1233 37.8518 27.8619 38.2396V38.0457C27.9294 37.3207 27.9968 36.4692 28.0558 35.7527C28.0558 35.0276 27.9884 34.9686 28.646 34.3785C29.6323 33.4596 30.0201 32.8021 30.8125 31.4279C31.1413 30.8378 31.2678 31.0317 31.2678 31.4279C31.2003 32.6756 30.4837 34.446 30.0875 35.5588L29.6323 36.6041C29.43 36.798 29.1686 36.9919 28.9073 37.1942ZM27.5332 38.8971C27.3983 39.2934 27.3393 39.7486 27.2718 40.2713C24.5826 41.6454 21.632 43.028 19.0776 44.537C18.8163 44.6718 18.6224 44.7983 18.4201 44.9922C18.2852 45.1271 18.2262 45.321 18.1587 45.4474C18.0239 45.8437 17.6361 46.1724 17.3073 46.4338C17.1134 46.5012 12.7212 48.8617 11.0773 49.3169C10.816 49.3843 10.816 49.3169 10.6811 49.182C10.4872 48.8532 10.2259 48.2631 10.1584 48.0018C10.091 47.8669 9.96455 47.673 9.96455 47.8669C9.96455 48.0608 10.032 48.1957 10.032 48.2631C9.96455 48.3306 9.96454 48.3306 9.8971 48.398C9.76222 48.398 9.63577 48.4655 9.56832 48.3306C9.43344 48.1957 9.43344 48.1957 9.37443 48.1367C9.37443 48.0692 9.30699 48.0018 9.30699 48.1367C9.30699 48.2041 9.37443 48.398 9.50088 48.5919C9.56832 48.7858 9.43344 48.7858 9.366 48.6594C9.23111 48.4655 8.96978 48.0018 8.91076 47.673C8.84332 47.4791 8.71687 47.6056 8.58199 47.6056C8.32065 47.673 8.32065 47.673 8.18576 47.4117C8.11832 47.2768 8.05088 47.1503 7.99187 47.0829C7.85698 46.7541 7.73053 46.7541 7.85699 47.0829L8.05088 47.8079C8.18576 48.1367 8.11832 48.3306 7.98344 47.9428L7.78954 47.4875C7.5282 47.6224 7.46076 47.555 7.26687 47.2262C7.07297 46.9649 6.74419 46.3073 6.81163 45.8521C6.81163 45.7846 6.81163 45.7172 6.87908 45.6582C6.87908 45.5907 6.87908 45.5233 6.94652 45.5233C7.01396 45.4559 7.01396 45.3884 7.14041 45.3884C7.73053 45.1271 9.50088 44.7983 10.2175 44.6044C11.7265 44.2756 13.6907 43.6855 15.1997 43.1628C15.4611 43.028 15.655 42.9689 15.9247 42.9689C18.3526 42.6402 19.6593 42.1849 21.691 41.266L25.0378 40.1532H25.1053L27.5332 38.8971ZM16.3209 28.4689H16.3884C16.4558 28.275 16.4558 28.1401 16.4558 28.0137L16.3209 24.7343C16.3209 24.5994 16.3209 24.6669 16.2535 24.5404C16.1861 24.5404 16.1186 24.473 16.1186 24.473C15.9247 24.3381 15.9247 24.4055 15.9837 24.6079C16.0596 25.9061 16.1861 27.1538 16.3209 28.4689ZM23.4023 52.1495H21.8933C21.8933 52.5457 22.2221 52.8745 22.6773 52.8745C23.0736 52.866 23.4023 52.5373 23.4023 52.1495ZM7.2753 42.6402C6.09506 42.5053 5.04971 42.3114 4.39216 42.05C4.32471 42.05 4.32471 41.9826 4.25727 41.9152C4.25727 41.8477 4.18983 40.6675 4.12239 40.4736L1.8968 40.3387C1.82936 40.3387 1.82936 40.3387 1.82936 40.4061L2.22558 42.6992C2.22558 42.7666 2.22558 42.7666 2.29303 42.7666C2.48692 42.7666 2.48692 42.9015 2.48692 42.9605C2.68082 44.0733 2.94215 45.2535 3.21192 46.3748C3.21192 46.3748 3.21192 46.4422 3.27936 46.5096C3.86948 46.9059 5.90117 47.8838 4.52704 46.4422C4.4596 46.3748 4.39216 46.2483 4.33314 46.2483C4.13925 46.0544 4.00436 45.8521 4.00436 45.7256C4.07181 45.5907 4.07181 45.4643 4.33314 45.4643C4.40059 45.4643 4.52704 45.4643 4.59448 45.4643C4.72936 45.5317 4.78838 45.5317 4.92326 45.5317C5.11716 45.5992 5.37849 45.5992 5.70727 45.6666C5.96861 45.6666 6.29739 45.7341 6.62617 45.7341C6.69361 45.6666 6.69361 45.6666 6.69361 45.5992C6.69361 45.5317 6.76105 45.4643 6.76105 45.4053C6.89594 45.2704 6.95495 45.2704 7.08983 45.2114C7.81483 44.95 9.2564 44.6887 10.1669 44.4274C8.98664 44.2925 7.87385 44.0311 6.88751 43.441C6.22995 43.0279 6.87908 42.7666 7.2753 42.6402ZM8.32908 42.6992H8.26164C8.06774 42.6992 7.2753 42.6992 7.34274 43.0954C7.53664 43.9468 9.77065 44.1407 10.7486 44.2756C12.0552 43.9468 13.8256 43.4916 15.1407 42.9605C15.4695 42.8256 15.5369 42.8256 15.8657 42.7666C16.0596 42.6992 16.2619 42.6317 16.3884 42.6317C14.618 42.6992 11.2122 42.8341 8.32908 42.6992ZM20.123 53.9873V53.0009H16.7172V57.9832H20.123V56.9969H17.6951V55.9515H20.123V55.0326H17.6951V53.9873H20.123ZM2.95058 53.9873H3.80204V57.9916H4.78838V53.0094C4.13082 53.0094 3.5407 53.0094 2.95058 53.0094V53.9873ZM12.2576 53.0009V57.9832H13.2439V56.3393H14.4241C15.343 56.3393 16.1271 55.6143 16.1271 54.6954C16.1271 53.7091 15.343 52.9925 14.4241 52.9925C13.6991 53.0009 12.9826 53.0009 12.2576 53.0009ZM13.2439 53.9873H14.4241C14.8204 53.9873 15.1491 54.316 15.1491 54.7123C15.1491 55.1085 14.8204 55.3698 14.4241 55.3698H13.2439V53.9873ZM29.0337 53.0009C27.7271 53.0009 26.4794 53.0009 25.1643 53.0009V53.9873H26.6058V57.9916H27.5922V53.9873H29.0337V53.0009ZM32.507 53.0009V54.7038L30.6102 56.6681V52.9925H29.6239V57.9748H30.6102L32.507 56.137V57.9748H33.4933V52.9925H32.507V53.0009ZM38.5431 53.0009V57.9832H39.5294V53.9788H41.6285V52.9925H38.5431V53.0009ZM36.9666 53.0009V55.0326H35.0698V53.0009H34.0835V57.9832H35.0698V55.9515H36.9666V57.9832H37.9529V53.0009H36.9666ZM10.4872 54.7038C10.091 54.7038 9.70321 55.1001 9.70321 55.4878C9.70321 55.8841 10.0994 56.2719 10.4872 56.2719C10.875 56.2719 11.2712 55.8756 11.2712 55.4878C11.2712 55.1001 10.8834 54.7038 10.4872 54.7038ZM23.5962 53.0009V54.7038L21.6994 56.6681V52.9925H20.7131V57.9748H21.6994L23.5962 56.137V57.9748H24.5826V52.9925H23.5962V53.0009ZM8.97821 57.7219L8.52297 56.8704C8.32908 57.0053 8.06774 57.0053 7.86541 57.0053C7.01396 57.0053 6.28896 56.3477 6.28896 55.4963C6.28896 54.6448 7.01396 53.9873 7.86541 53.9873C8.05931 53.9873 8.32065 53.9873 8.52297 54.1221L8.97821 53.2707C8.58199 53.0768 8.25321 53.0094 7.86541 53.0094C6.49129 53.0094 5.31105 54.1221 5.31105 55.5047C5.31105 56.8788 6.49129 58.0001 7.86541 58.0001C8.26164 57.9832 8.59042 57.9157 8.97821 57.7219ZM25.1053 24.3971C25.2992 26.9515 25.3666 29.5817 23.925 33.2489L23.7901 33.055L24.1189 33.4512C24.5742 32.9285 24.9029 32.5997 25.2317 32.0096C25.4256 31.6808 25.5605 31.0907 25.8218 30.5006C25.8893 30.2393 25.8893 30.0454 26.0832 29.9105L26.9346 29.1855C27.3308 28.9242 27.3899 28.8567 27.7186 29.2529L28.1149 29.7082C28.4436 30.1044 28.5701 30.1044 28.9663 29.7756L29.2951 29.4468C29.6239 29.1181 29.7503 28.9916 29.489 28.6628C28.2413 27.2887 27.2634 25.7797 26.2771 24.2032C25.8218 24.3381 25.493 24.3381 25.1053 24.3971ZM29.5649 11.6759C23.8576 6.22995 18.4201 3.74303 11.0773 1.24768C11.7349 2.42791 15.7308 5.77471 17.105 7.28373C20.182 10.6305 22.8038 14.4326 25.5605 18.0407C26.218 18.8922 26.8672 19.7436 27.196 18.3021C27.2634 17.9733 28.8314 16.9279 29.4215 15.8741C30.5428 13.775 29.4974 13.5137 29.5649 11.6759ZM23.4614 32.4733C24.5067 29.9189 25.0378 27.2297 24.768 24.4055C23.984 24.5404 23.1326 24.5404 22.3401 24.6669C21.8849 24.7343 21.8175 24.8608 21.4887 25.5858L21.4212 25.7797L21.025 26.825C20.6962 27.55 20.6962 27.55 20.9576 28.1401C21.4803 29.1265 22.2053 30.1718 22.7954 31.2256L23.4614 32.4733ZM15.2756 42.4378C15.4105 39.8835 15.7308 37.4556 16.0596 34.6989C16.3209 32.4649 16.3884 31.4869 16.3884 34.1762C16.4558 37.3207 16.4558 40.0774 16.5823 42.4378H16.6497L17.2398 42.3704L18.2262 42.1765V29.9105C18.1587 28.0727 18.0913 27.4826 18.6224 29.7166C18.6898 30.1718 18.8163 30.6355 18.8837 31.0317C19.1451 32.937 19.2125 34.7663 19.339 37.1352L19.6003 40.2797L19.7352 41.8561L20.064 41.7213L19.8701 38.248L19.4148 31.9506L19.0102 27.2887L18.9428 25.1896C18.9428 24.2707 19.1366 23.9419 19.6678 23.6805C20.5192 23.3518 22.7448 23.6805 23.7986 23.8154C24.4561 23.3602 23.6637 22.7701 23.9925 22.0451C24.1273 21.7837 24.3212 21.7163 24.2538 22.1125C24.1189 22.8375 24.1864 23.1579 24.2538 23.8829C24.4477 23.8829 24.65 23.8829 24.8439 23.8154L25.8303 23.4192C25.375 22.6942 24.9114 22.5678 24.3212 21.5814C23.4698 21.5814 22.6183 21.7163 21.8933 21.6489C21.1093 21.514 20.907 21.7163 20.5866 21.9102C20.1904 22.1041 19.8616 22.3064 19.5413 22.3654C18.9512 22.5593 18.4285 22.5593 17.8384 22.298C17.3832 22.0366 17.0544 21.7079 16.793 21.4465C16.793 21.514 16.793 21.6404 16.7256 21.7753C16.6582 22.0366 16.6582 22.1041 16.5907 22.1715C16.5233 22.3064 16.4558 22.3064 16.1945 22.4329C15.9332 22.5003 16.0596 22.5003 15.7983 22.4329C15.2756 22.239 14.8119 22.239 14.3567 22.298C13.9015 22.3654 13.4378 22.5593 13.05 22.8207C12.0637 23.4782 11.4145 24.0683 11.2122 24.9198C11.0183 25.375 11.0183 25.9061 11.0773 26.4962C11.6 26.5637 12.4515 25.9736 12.7128 25.6448C12.7802 25.4509 12.8477 25.316 12.9067 25.1896C12.9741 24.9957 12.7718 24.9282 12.8393 24.6669C12.9151 24.4646 12.9826 24.3971 13.109 24.4646C13.3029 24.532 13.3029 24.532 13.5643 24.4646H13.6317C13.893 24.3297 14.1544 24.2032 14.4832 24.0683C14.618 24.591 14.8119 25.0547 14.8794 25.5774C15.0143 26.1675 15.0733 26.6901 15.0733 27.2212C15.1407 28.5364 14.9384 30.1044 14.8119 31.3521C14.2893 35.2215 13.6317 38.6358 13.2355 42.5053C14.0279 42.5053 14.4832 42.5053 15.2756 42.4378ZM17.6951 22.8291L17.5012 24.0093C17.4337 24.3381 17.3663 24.4646 17.0459 24.4646H16.8521C16.8521 24.6585 16.8521 25.7797 16.8521 26.3024V26.3698V27.4826C16.8521 27.6765 16.8521 27.8788 16.7846 28.0727C16.7846 28.1401 16.7172 28.2076 16.6497 28.1401C16.6497 28.0727 16.6497 28.0727 16.6497 27.9462C16.6497 27.8788 16.5823 27.7524 16.5823 27.6849L16.5148 24.5994V24.4055H16.4474C16.2535 24.4055 16.1861 24.2707 16.1861 24.2117C16.1186 24.0768 16.1861 23.8829 16.2535 23.689C16.3209 23.5541 16.3884 23.4951 16.3209 23.6215C16.3209 23.8829 16.1861 24.0768 16.4558 24.0768H16.9785C17.1724 24.1442 17.2398 24.0093 17.2398 23.8154L17.3747 22.8965C17.4422 22.7026 17.4422 22.6352 17.2398 22.6352H16.7846C16.6497 22.6352 16.7172 22.5003 16.8521 22.5003H17.3747H17.5096C17.5771 22.5003 17.7035 22.5678 17.7035 22.6942V22.8291H17.6951ZM23.4614 41.0637C21.691 41.8477 19.9207 42.6402 18.1503 43.4242C17.889 43.4916 17.6276 43.4916 17.3663 43.5591C16.8436 43.5591 16.7762 43.5591 16.3209 43.753L10.1584 46.5096C9.96454 46.6445 10.2933 46.771 10.5547 46.6445C12.4515 45.7256 14.4832 44.8742 16.3884 43.9553C16.7172 43.8204 16.9785 43.7614 17.2398 43.7614C17.6361 43.8288 17.83 43.8288 18.1587 43.6939C19.9965 42.8425 21.7669 41.991 23.5372 41.1396C24.4477 40.6675 24.4477 40.6675 23.4614 41.0637ZM13.893 44.2756C11.9288 45.0596 9.1721 46.2399 8.91076 46.4422C8.84332 46.5771 8.84332 46.771 8.84332 46.8974C8.84332 47.0323 8.84332 47.0323 8.84332 47.0323C8.84332 46.9649 8.70844 46.771 8.70844 46.7035C8.57355 46.4422 8.57355 46.2483 8.84332 46.046C9.03722 45.9111 9.366 45.7846 9.82966 45.5907C11.0773 45.1355 12.5189 44.6718 13.8256 44.2166C14.8794 43.8204 15.2082 43.7529 13.893 44.2756ZM7.67152 46.1134C7.67152 45.8521 7.8064 45.7846 8.0003 45.7172C8.19419 45.5823 8.9192 45.3884 9.63577 45.1945C9.8971 45.1271 11.3387 44.6718 11.4736 44.6044C11.4736 44.6044 10.0994 44.9332 9.63577 45.0006C8.97821 45.1945 8.38809 45.3294 7.93286 45.4559C7.53663 45.6498 7.53664 45.7846 7.60408 46.1134C7.67152 46.2483 7.67152 46.2483 7.67152 46.2483C7.67152 46.2483 7.67152 46.2399 7.67152 46.1134ZM11.6675 24.6669C11.6 24.5994 11.4736 24.5994 11.4736 24.8018C11.4736 25.0041 11.6084 25.0631 11.7349 25.198C11.8023 25.2654 11.541 25.2654 11.3387 25.198C11.2038 25.198 11.0773 25.198 11.2712 25.3329C11.6675 25.4678 12.5189 25.4003 12.4515 25.3329C11.8023 25.0547 11.8614 24.8608 11.6675 24.6669ZM11.5326 26.1759C12.0552 25.982 12.7128 25.5183 12.5189 25.5858C12.384 25.5858 11.8613 25.7207 11.5326 25.8471C11.2712 25.9736 11.0099 26.3698 11.5326 26.1759ZM16.3884 22.6942C16.3209 22.7617 16.2535 22.8291 16.1271 22.8881C15.9922 22.9555 16.1945 23.023 16.2619 23.023C16.6497 22.8291 16.5823 22.5003 16.3884 22.6942ZM16.5823 23.023L16.5148 23.6805L16.4474 23.748C16.4474 23.8829 16.4474 23.8829 16.5823 23.8829C16.7172 23.8829 16.7762 23.8829 16.7172 23.8154C16.6497 23.748 16.6497 23.6805 16.6497 23.6215L16.7172 23.1663C16.7846 23.0314 16.7846 23.0314 16.8521 22.905C16.8521 22.905 16.8521 22.905 16.7846 22.905H16.7172C16.5823 22.8965 16.6497 22.8965 16.5823 23.023ZM14.1544 25.8471C14.0869 25.9146 14.0195 26.041 13.9605 26.1759C13.7666 26.5047 13.7666 26.9009 13.7666 27.491C13.7666 27.6849 13.7666 27.9462 13.7666 28.216C14.0279 28.216 14.2893 28.2835 14.4916 28.4099C14.6265 28.4774 14.7529 28.6038 14.8204 28.8061C14.8878 28.216 14.9552 27.7608 14.8878 27.2297C14.8878 26.6396 14.8204 26.1169 14.6939 25.4593C14.4241 25.5858 14.2893 25.7122 14.1544 25.8471ZM13.109 28.334C12.9741 27.9378 12.6538 27.8788 12.4515 28.2666L12.384 28.4605C12.1901 28.9157 12.1901 29.1181 12.384 29.3119H12.5189C13.3704 29.7082 13.0416 29.6407 13.8256 28.9832C14.0195 28.7218 14.0869 28.7893 14.0195 29.0506C13.952 29.3119 14.2808 29.7756 14.4747 29.3119C14.5422 29.1181 14.5422 28.7218 14.2808 28.4605C14.1459 28.3931 13.8846 28.3931 13.6233 28.3256C13.4378 28.334 13.3029 28.334 13.109 28.334ZM11.5326 27.7439C11.7265 27.609 11.9878 27.4826 12.1901 27.4826C12.2576 27.4826 12.2576 27.4826 12.2576 27.4151C12.325 27.2803 12.0637 27.2803 11.8023 27.3477C11.6675 27.3477 11.541 27.4151 11.4061 27.4826C11.4061 27.55 11.4736 27.6849 11.5326 27.7439ZM12.1227 26.5637C12.0552 26.6311 12.0552 26.6311 12.1227 26.825C12.1901 27.0189 12.384 27.2212 12.5189 27.4826C12.5863 27.7439 12.6538 27.8788 12.6538 27.4826C12.5863 27.0274 12.5189 26.6986 12.5863 26.2349C12.5863 26.1675 12.5863 26.1 12.5863 26.041C12.5863 26.041 12.1901 26.4962 12.1227 26.5637ZM18.2262 17.3832C17.8974 17.7794 17.83 17.9733 17.7709 18.4959C18.1672 18.6308 18.4959 18.6898 18.8837 18.8922C19.339 19.0861 19.9291 19.2209 20.2579 19.0861C20.6541 18.9512 20.7805 18.6308 20.6541 18.3021C20.3928 18.1082 20.064 18.0407 19.7352 17.9058L19.5413 17.8384C19.0776 17.7119 18.6814 17.6445 18.2262 17.3832ZM14.9468 19.7436C15.0817 19.6762 15.2082 19.6087 15.343 19.4823C15.5369 19.3474 15.7393 19.1535 15.8657 19.0271C16.0006 18.8922 16.1945 18.7657 16.3209 18.5718V17.7204C15.9247 18.3105 15.3346 18.5044 14.9468 19.0355C14.8794 19.1704 14.7529 19.2968 14.7529 19.4317C14.6855 19.6087 14.6855 19.8111 14.9468 19.7436ZM16.4558 18.3695H17.0459H17.1134C17.1134 18.2346 17.1134 18.1082 17.1134 17.9733L17.1808 16.3968C17.1808 16.3294 17.1808 16.3294 17.0459 16.3294L16.5907 16.3968C16.4558 16.3968 16.4558 16.3968 16.4558 16.4643C16.4558 16.6582 16.4558 16.9195 16.4558 17.1218C16.4558 17.518 16.4558 17.9733 16.4558 18.3695ZM17.1724 19.6087C17.0375 19.6762 16.9785 19.9375 17.2398 19.8701C17.3747 19.8026 17.4337 19.7352 17.5686 19.6762C17.7625 19.5413 17.7035 19.5413 17.5686 19.4823C17.5012 19.4148 17.0459 19.2209 17.1724 19.4148C17.1724 19.4148 17.1724 19.4148 17.1724 19.4823C17.3073 19.5497 17.2398 19.5497 17.1724 19.6087ZM16.5148 19.1535C16.4474 19.2884 16.3209 19.2884 16.1186 19.2884L15.9837 19.3558C15.9837 19.6846 16.0512 19.8785 16.1776 20.1398C16.2451 20.3337 16.3125 20.5361 16.3715 20.73C16.439 20.9239 16.5654 20.9913 16.7677 20.9913C17.0291 20.9913 17.164 20.9239 17.164 20.7974C17.2989 20.5361 17.2314 20.4686 17.0965 20.4686C16.9616 20.4012 16.8352 20.4686 16.7003 20.4686C16.5064 20.4686 16.5064 20.3337 16.6329 20.3337C16.7003 20.3337 16.7003 20.3337 16.7677 20.3337C16.9616 20.3337 17.0291 20.2663 17.0291 20.1989C17.223 19.9375 16.7677 20.005 16.6329 20.064C16.498 20.1989 16.3041 20.064 16.439 19.9291C16.5064 19.9291 16.5739 19.9291 16.6329 19.9291C16.8268 19.9291 16.7677 19.8616 16.7003 19.6678H16.6497C16.5148 19.6003 16.5823 19.4739 16.7172 19.4739C16.9785 19.4739 16.8521 19.28 16.9111 19.2125C16.9785 19.0776 16.9785 18.9512 16.8436 18.8837C16.6497 18.8247 16.6497 19.0861 16.5148 19.1535ZM38.9983 27.3561C38.9309 20.8648 35.6515 15.0901 30.7367 11.6169C30.6692 12.5358 30.8041 13.5811 30.9306 14.441C30.998 14.8962 31.0654 15.2925 31.1919 15.7561C34.4038 18.7741 36.5029 22.9724 36.7643 27.6259C37.5567 27.55 38.2817 27.4826 38.9983 27.3561ZM21.2358 3.86948C20.8396 3.86948 20.4518 3.93692 20.0555 3.93692C20.4518 4.13082 20.8396 4.2657 21.1683 4.4596C22.416 5.11716 23.6553 5.77471 24.8355 6.49129C34.075 8.7253 40.9625 16.9869 40.9625 26.9599C40.9625 27.2887 40.9625 27.6175 40.9625 27.9462C41.0974 28.1401 41.0974 28.3425 41.0974 28.5364L40.9625 29.5227C40.8951 29.784 40.8951 29.9189 40.7686 30.0454C40.7012 30.5681 40.5747 31.0907 40.5073 31.6218C40.9625 32.0181 41.4262 32.4733 41.8814 32.937C42.6654 30.6439 43.0617 28.2835 43.0617 25.7207C43.0617 13.6401 33.2994 3.86948 21.2358 3.86948ZM12.9151 5.57239C6.82007 8.06774 2.09913 13.2439 0.261337 19.6762C0.193895 19.8701 0.126453 20.0724 0.126453 20.2663C0.0590116 20.5951 0.0590117 20.5276 0.193896 20.1314C0.261337 19.9965 0.261337 19.8026 0.328779 19.6762C2.6218 13.5727 7.53664 8.85175 13.7666 6.88751C13.5052 6.43227 13.1765 5.96861 12.9151 5.57239Z" fill="#DD2A1B"/>
</svg>
