<svg width="22" height="22" viewBox="0 0 22 22" fill="none" xmlns="http://www.w3.org/2000/svg">
<path fill-rule="evenodd" clip-rule="evenodd" d="M16.8337 5.1664C13.6119 1.94455 8.38826 1.94455 5.16641 5.1664C1.94455 8.38826 1.94455 13.6119 5.16641 16.8337C7.96674 19.634 12.2823 20.0014 15.4785 17.9312C16.1158 17.5183 16.9672 17.7004 17.38 18.3377C17.7929 18.9751 17.6108 19.8264 16.9735 20.2393C12.7113 23.0002 6.95837 22.5148 3.22185 18.7784C-1.07395 14.4826 -1.07395 7.51764 3.22185 3.22185C7.51764 -1.07395 14.4826 -1.07395 18.7784 3.22185C20.9259 5.36945 22.0002 8.18708 22.0002 11.0001C22.0002 13.2783 20.1534 15.1251 17.8751 15.1251C16.9466 15.1251 16.0897 14.8183 15.4002 14.3005C14.3968 15.6362 12.7993 16.5001 11.0001 16.5001C7.96249 16.5001 5.50004 14.0376 5.50004 11.0001C5.50004 7.96249 7.96249 5.50004 11.0001 5.50004C14.0376 5.50004 16.5001 7.96249 16.5001 11.0001C16.5001 11.7595 17.1157 12.3751 17.8751 12.3751C18.6345 12.3751 19.2501 11.7595 19.2501 11.0001C19.2501 8.8866 18.4449 6.77756 16.8337 5.1664ZM13.7501 11.0001C13.7501 9.48128 12.5189 8.25006 11.0001 8.25006C9.48128 8.25006 8.25006 9.48128 8.25006 11.0001C8.25006 12.5189 9.48128 13.7501 11.0001 13.7501C12.5189 13.7501 13.7501 12.5189 13.7501 11.0001Z" fill="white"/>
</svg>
