<svg width="28" height="20" viewBox="0 0 28 20" fill="none" xmlns="http://www.w3.org/2000/svg">
<path fill-rule="evenodd" clip-rule="evenodd" d="M19.4393 17.0606C18.8536 16.4749 18.8536 15.5251 19.4393 14.9394L24.3787 10L19.4393 5.06066C18.8536 4.47487 18.8536 3.52513 19.4393 2.93934C20.0251 2.35355 20.9749 2.35355 21.5607 2.93934L27.5606 8.93933C28.1464 9.52513 28.1464 10.4749 27.5606 11.0606L21.5607 17.0606C20.9749 17.6464 20.0251 17.6464 19.4393 17.0606Z" fill="white"/>
<path fill-rule="evenodd" clip-rule="evenodd" d="M8.5606 2.93935C9.14638 3.5251 9.14638 4.4749 8.5606 5.06065L3.62124 10L8.5606 14.9393C9.14638 15.5251 9.14638 16.4749 8.5606 17.0607C7.97481 17.6464 7.02507 17.6464 6.43927 17.0607L0.439289 11.0607C-0.146461 10.4749 -0.146461 9.5251 0.439288 8.93935L6.43927 2.93935C7.02507 2.3536 7.97481 2.3536 8.5606 2.93935Z" fill="white"/>
<path fill-rule="evenodd" clip-rule="evenodd" d="M11.381 19.4417C10.6183 19.2241 10.1738 18.4386 10.3881 17.6872L15.0454 1.3605C15.2597 0.609067 16.0518 0.17632 16.8145 0.393883C17.5772 0.611455 18.0217 1.39694 17.8074 2.14838L13.1501 18.475C12.9358 19.2265 12.1437 19.6592 11.381 19.4417Z" fill="white"/>
</svg>
