<svg width="27" height="16" viewBox="0 0 27 16" fill="none" xmlns="http://www.w3.org/2000/svg">
<path d="M26.5909 13.595C26.5909 13.4912 26.4871 13.4912 26.4871 13.3874C26.072 12.5572 25.138 11.5194 23.8926 10.3779C23.27 9.85897 22.9586 9.44385 22.7511 9.23629C22.4397 8.82118 22.4398 8.50985 22.5435 8.09474C22.6473 7.7834 23.0624 7.2645 23.7889 6.33049C24.204 5.8116 24.4115 5.50027 24.7229 5.18893C26.2795 3.11336 27.006 1.76423 26.7984 1.14156L26.6947 1.03779C26.5909 0.934008 26.4871 0.830232 26.2795 0.830232C26.072 0.726454 25.7607 0.726454 25.4493 0.830232H21.5057C21.402 0.830232 21.402 0.830232 21.1944 0.830232C21.0906 0.830232 20.9869 0.830232 20.9869 0.830232H20.8831H20.7793L20.6755 0.934002C20.5717 1.03778 20.5717 1.03778 20.5717 1.14156C20.1566 2.28312 19.6377 3.21713 19.1188 4.25492C18.8075 4.77381 18.4962 5.29271 18.1848 5.70783C17.8735 6.12294 17.6659 6.43427 17.4584 6.64183C17.2508 6.84939 17.0432 6.95316 16.9395 7.16072C16.8357 7.2645 16.6281 7.36829 16.6281 7.26451C16.5244 7.26451 16.4206 7.2645 16.4206 7.16072C16.3168 7.05694 16.213 6.95316 16.1092 6.84938C16.0055 6.7456 16.0055 6.53805 15.9017 6.33049C15.9017 6.12293 15.9017 5.91537 15.9017 5.8116C15.9017 5.70782 15.9017 5.39649 15.9017 5.18893C15.9017 4.8776 15.9017 4.67003 15.9017 4.56625C15.9017 4.25492 15.9017 3.83981 15.9017 3.4247C15.9017 3.00958 15.9017 2.69824 15.9017 2.49068C15.9017 2.28312 15.9017 1.97179 15.9017 1.76423C15.9017 1.4529 15.9017 1.24533 15.9017 1.14156C15.9017 1.03778 15.7979 0.830226 15.7979 0.726447C15.6941 0.622669 15.5903 0.518887 15.4866 0.415108C15.3828 0.31133 15.1752 0.311333 15.0715 0.207554C14.5526 0.103775 13.9299 0 13.2035 0C11.543 0 10.4014 0.103782 9.98631 0.311339C9.77875 0.415118 9.5712 0.51889 9.46742 0.726447C9.25986 0.934005 9.25985 1.03779 9.36363 1.03779C9.88253 1.14157 10.2976 1.34911 10.5052 1.66045L10.609 1.86802C10.7128 1.9718 10.7127 2.17935 10.8165 2.49068C10.9203 2.80202 10.9203 3.11335 10.9203 3.52847C10.9203 4.15114 10.9203 4.77382 10.9203 5.18893C10.9203 5.70783 10.8165 6.01915 10.8165 6.33049C10.8165 6.64182 10.7128 6.84939 10.609 6.95317C10.5052 7.16072 10.5052 7.26451 10.4014 7.26451C10.4014 7.26451 10.4014 7.36828 10.2976 7.36828C10.1939 7.36828 10.0901 7.47206 9.88253 7.47206C9.77875 7.47206 9.5712 7.36829 9.46742 7.26451C9.25986 7.16073 9.0523 6.95317 8.94852 6.74561C8.74097 6.53806 8.5334 6.22671 8.32585 5.8116C8.11829 5.39648 7.80694 4.98137 7.59938 4.3587L7.39184 3.94359C7.28807 3.73603 7.08051 3.32091 6.87295 2.80202C6.66539 2.28313 6.45783 1.86802 6.25027 1.34913C6.14649 1.14157 6.04273 1.03778 5.93895 0.934002H5.83516C5.83516 0.934002 5.73137 0.830232 5.62759 0.830232C5.52382 0.830232 5.42005 0.726447 5.31627 0.726447H1.58023C1.16512 0.726447 0.957564 0.830223 0.853785 0.934002L0.75 1.03779C0.75 1.03779 0.75 1.14156 0.75 1.24534C0.75 1.34912 0.750006 1.45289 0.853785 1.66045C1.37268 2.90579 1.99535 4.15114 2.61802 5.39649C3.24069 6.53805 3.86337 7.57584 4.27848 8.30229C4.79738 9.02874 5.21249 9.75519 5.73138 10.3779C6.25027 11.0005 6.5616 11.4156 6.66538 11.6232C6.87294 11.8308 6.97671 11.9345 7.08049 12.0383L7.39184 12.3497C7.5994 12.5572 7.91073 12.8686 8.32585 13.1799C8.74096 13.4912 9.25985 13.8026 9.77874 14.1139C10.2976 14.4252 10.9203 14.6328 11.543 14.8404C12.2694 15.0479 12.8921 15.1517 13.5148 15.0479H15.0715C15.3828 15.0479 15.5904 14.9441 15.7979 14.7366L15.9017 14.6328C15.9017 14.529 16.0055 14.529 16.0055 14.4252C16.0055 14.3214 16.0055 14.2177 16.0055 14.0101C16.0055 13.595 16.0055 13.2837 16.1092 12.9723C16.213 12.661 16.213 12.4534 16.3168 12.2459C16.4206 12.0383 16.5244 11.9345 16.6281 11.8308C16.7319 11.727 16.8357 11.6232 16.8357 11.6232H16.9395C17.147 11.5194 17.4584 11.6232 17.6659 11.8308C17.9773 12.0383 18.2886 12.3497 18.4961 12.661C18.7037 12.9723 19.0151 13.2837 19.4302 13.6988C19.8453 14.1139 20.1566 14.4252 20.3642 14.529L20.6755 14.7366C20.8831 14.8403 21.0906 14.9441 21.402 15.0479C21.7133 15.1517 21.9208 15.1517 22.1284 15.1517L25.6569 15.0479C25.9682 15.0479 26.2796 14.9441 26.4871 14.8404C26.6947 14.7366 26.7984 14.6328 26.7984 14.4252C26.7984 14.3214 26.7984 14.1139 26.7984 14.0101C26.5909 13.8026 26.5909 13.6988 26.5909 13.595Z" fill="white"/>
</svg>
